<?xml version="1.0" encoding="UTF-8" standalone="no"?>
<!-- Created with Inkscape (http://www.inkscape.org/) -->

<svg
   xmlns:osb="http://www.openswatchbook.org/uri/2009/osb"
   xmlns:dc="http://purl.org/dc/elements/1.1/"
   xmlns:cc="http://creativecommons.org/ns#"
   xmlns:rdf="http://www.w3.org/1999/02/22-rdf-syntax-ns#"
   xmlns:svg="http://www.w3.org/2000/svg"
   xmlns="http://www.w3.org/2000/svg"
   xmlns:sodipodi="http://sodipodi.sourceforge.net/DTD/sodipodi-0.dtd"
   xmlns:inkscape="http://www.inkscape.org/namespaces/inkscape"
   id="svg2985"
   version="1.1"
   inkscape:version="0.48.4 r9939"
   width="500"
   height="500"
   sodipodi:docname="DominionToolkitLogo.svg">
  <metadata
     id="metadata2991">
    <rdf:RDF>
      <cc:Work
         rdf:about="">
        <dc:format>image/svg+xml</dc:format>
        <dc:type
           rdf:resource="http://purl.org/dc/dcmitype/StillImage" />
        <dc:title />
      </cc:Work>
    </rdf:RDF>
  </metadata>
  <defs
     id="defs2989">
    <linearGradient
       id="linearGradient5414"
       osb:paint="solid">
      <stop
         style="stop-color:#0000aa;stop-opacity:1;"
         offset="0"
         id="stop5416" />
    </linearGradient>
  </defs>
  <sodipodi:namedview
     pagecolor="#ffffff"
     bordercolor="#666666"
     borderopacity="1"
     objecttolerance="10"
     gridtolerance="10"
     guidetolerance="10"
     inkscape:pageopacity="0"
     inkscape:pageshadow="2"
     inkscape:window-width="1920"
     inkscape:window-height="1018"
     id="namedview2987"
     showgrid="false"
     inkscape:zoom="1.662"
     inkscape:cx="250"
     inkscape:cy="250"
     inkscape:window-x="-8"
     inkscape:window-y="-8"
     inkscape:window-maximized="1"
     inkscape:current-layer="layer2" />
  <g
     inkscape:groupmode="layer"
     id="layer1"
     inkscape:label="DominionLogo"
     style="display:inline">
    <path
       style="fill:none;stroke:#000000;stroke-width:5;stroke-linecap:butt;stroke-linejoin:miter;stroke-miterlimit:4;stroke-opacity:1;stroke-dasharray:none"
       d="m 145.51404,139.23365 c -13.68415,0.0323 -27.11379,0.14408 -30.59226,3.36563 -3.42188,1.37102 -8.52502,5.65368 -9.62695,14.44043 2.33912,8.22531 7.76053,7.20377 13.23706,6.01685 l 27.11391,-6.37405 c -1.25819,-6.21887 -1.4768,-11.87301 -0.13176,-17.44886 z"
       id="path3010"
       inkscape:connector-curvature="0"
       sodipodi:nodetypes="cccccc" />
    <path
       style="fill:none;stroke:#000000;stroke-width:5;stroke-linecap:butt;stroke-linejoin:miter;stroke-miterlimit:4;stroke-opacity:1;stroke-dasharray:none"
       d="m 141.13238,304.90334 8.68711,0.7525 -4.81347,10.83032 -4.2118,0 c 0.61161,-2.36426 1.01612,-5.34983 0.33816,-11.58282 z"
       id="path3022"
       inkscape:connector-curvature="0"
       sodipodi:nodetypes="ccccc" />
    <path
       style="fill:none;stroke:#000000;stroke-width:5;stroke-linecap:butt;stroke-linejoin:miter;stroke-miterlimit:4;stroke-opacity:1;stroke-dasharray:none"
       d="m 139.77819,283.73166 0.62074,14.08322 11.8273,0.0191 5.41517,-10.22865 z"
       id="path3020"
       inkscape:connector-curvature="0"
       sodipodi:nodetypes="ccccc" />
    <path
       style="fill:none;stroke:#000000;stroke-width:5;stroke-linecap:butt;stroke-linejoin:miter;stroke-miterlimit:4;stroke-opacity:1;stroke-dasharray:none"
       d="m 47.533093,344.16366 0.601684,48.13478 c 3.897807,10.08065 11.032377,7.21425 18.050542,4.81347 82.464241,-26.96662 111.615391,-21.69619 147.412751,-14.44043 1.48854,31.72738 -0.93399,64.75845 -4.21179,98.07461 18.26177,13.95503 20.17808,3.39186 26.47413,-0.60169 0.20056,-27.34276 0.40112,-55.26554 0.60168,-92.05776 26.67469,3.13357 53.34938,10.07164 80.02407,16.24549 25.81512,-44.61457 22.62673,-36.47787 65.58364,-66.787 C 519.51501,201.3667 469.56138,37.384013 248.49579,58.965102 c -0.46221,-20.297647 1.59324,-18.985172 18.65222,-40.91456 -13.46333,-18.56742209 -49.52333,-2.034858 -52.94825,10.22864 -3.27719,15.534187 0.0878,22.212093 1.20337,31.88929 -56.73888,-6.025633 -164.994965,-4.201023 -63.77858,-34.296029 4.47138,-3.208985 4.14556,-6.417971 0.60168,-9.626956 C 92.78668,13.09 55.028677,37.453398 37.304452,87.244284 c 26.386,15.035936 75.764738,8.163858 92.057758,19.253906 -107.605639,63.51684 7.22788,133.74563 -4.21179,196.14922 -2.58236,26.79837 -7.38687,24.70876 -11.43201,32.49098 z"
       id="path3006"
       inkscape:connector-curvature="0"
       sodipodi:nodetypes="cccccccccccccccccccc" />
    <path
       style="fill:none;stroke:#000000;stroke-width:5;stroke-linecap:butt;stroke-linejoin:miter;stroke-miterlimit:4;stroke-opacity:1;stroke-dasharray:none"
       d="m 164.25993,253.74108 c 0.65028,12.06294 -2.89485,17.83276 -6.01685,24.23726 -4.29122,1.95787 -12.20521,0.8105 -21.02086,-1.10971 -1.53663,-7.04698 -1.06457,-13.26436 -3.04653,-19.72382 10.35093,-0.32745 20.974,0.0254 30.08424,-3.40373 z"
       id="path3018"
       inkscape:connector-curvature="0"
       sodipodi:nodetypes="ccccc" />
    <path
       style="fill:none;stroke:#000000;stroke-width:5;stroke-linecap:butt;stroke-linejoin:miter;stroke-miterlimit:4;stroke-opacity:1;stroke-dasharray:none"
       d="m 164.27898,220.81829 c 4.85623,12.73385 1.72121,17.2713 1.20337,24.66907 -7.30689,2.07348 -14.67507,4.37919 -31.40032,4.569 -0.16852,-7.65973 -1.95342,-15.16998 -3.38468,-21.56698 14.64516,-0.62765 25.40395,-3.8097 33.58163,-7.67109 z"
       id="path3016"
       inkscape:connector-curvature="0"
       sodipodi:nodetypes="ccccc" />
    <path
       style="fill:none;stroke:#000000;stroke-width:5;stroke-linecap:butt;stroke-linejoin:miter;stroke-miterlimit:4;stroke-opacity:1;stroke-dasharray:none"
       d="m 155.25371,192.53911 c 3.6197,6.01685 5.44586,12.03369 5.92318,18.05054 -7.44644,4.2387 -17.8943,8.467 -33.61973,11.43201 -5.38224,-4.32597 -9.39321,-9.82731 -10.22864,-18.05054 10.3066,-4.23904 21.88658,-8.46675 37.92519,-11.43201 z"
       id="path3014"
       inkscape:connector-curvature="0"
       sodipodi:nodetypes="ccccc" />
    <path
       style="fill:none;stroke:#000000;stroke-width:5;stroke-linecap:butt;stroke-linejoin:miter;stroke-miterlimit:4;stroke-opacity:1;stroke-dasharray:none"
       d="m 247.8941,117.93021 1.80506,211.79301 64.98195,10.22864 c 35.92585,-38.73891 53.42963,-74.46422 58.9651,-129.36221 4.04452,-70.17324 -48.79223,-95.52733 -125.75211,-92.65944 z"
       id="path2996"
       inkscape:connector-curvature="0"
       sodipodi:nodetypes="ccccc" />
    <path
       style="fill:none;stroke:#000000;stroke-width:5;stroke-linecap:butt;stroke-linejoin:miter;stroke-miterlimit:4;stroke-opacity:1;stroke-dasharray:none"
       d="m 147.39371,168.7162 c -31.96669,1.0195 -27.17412,2.95799 -35.48035,4.569 -3.08254,1.95621 -3.53505,5.66576 -1.80506,10.83032 2.38738,5.13023 1.97578,7.74008 5.00082,9.04432 11.85643,-3.40329 26.96399,-4.8559 35.91374,-10.0032 -1.69722,-3.51542 -2.57548,-8.3508 -3.62915,-14.44044 z"
       id="path3012"
       inkscape:connector-curvature="0"
       sodipodi:nodetypes="cccccc" />
    <path
       style="fill:none;stroke:#000000;stroke-width:5;stroke-linecap:butt;stroke-linejoin:miter;stroke-miterlimit:4;stroke-opacity:1;stroke-dasharray:none"
       d="m 215.40313,112.51504 4.21179,213.59808 -64.98195,2.40674 c 11.99161,-27.79139 20.65836,-56.67829 24.66908,-90.8544 -3.22758,-28.88087 -7.74874,-53.54993 -20.45729,-82.4308 -1.55463,-10.40427 0.55215,-36.12586 8.42359,-48.13478 z"
       id="path2998"
       inkscape:connector-curvature="0"
       sodipodi:nodetypes="ccccccc" />
    <path
       style="fill:none;stroke:#000000;stroke-width:5;stroke-linecap:butt;stroke-linejoin:miter;stroke-miterlimit:4;stroke-opacity:1;stroke-dasharray:none"
       d="m 140.79422,114.3201 10.83033,0.60168 c -2.50563,4.5665 -4.11261,8.83345 -4.66266,12.74809 -6.3536,0.66606 -12.75692,1.28239 -21.66065,-0.60168 4.34785,-4.54585 4.43772,-8.81201 15.49298,-12.74809 z"
       id="path3008"
       inkscape:connector-curvature="0"
       sodipodi:nodetypes="ccccc" />
    <path
       style="fill:#047caf;fill-opacity:1;fill-rule:nonzero;stroke:#0975a3;stroke-width:3.00842357;stroke-miterlimit:4;stroke-opacity:1;stroke-dasharray:none"
       d="m 217.8598,482.63477 c -1.85457,-1.07157 -3.86118,-2.25423 -4.45915,-2.62815 -1.04505,-0.65349 -1.04751,-1.12016 -0.0634,-12.0337 0.56311,-6.24461 1.42093,-16.769 1.90626,-23.38753 1.05581,-14.39813 1.81104,-58.57717 1.05907,-61.95345 -0.51929,-2.33162 -0.61429,-2.40392 -4.1189,-3.13486 -9.18129,-1.91489 -26.06793,-4.42107 -33.97243,-5.04192 -27.66368,-2.1728 -61.06592,3.57127 -109.205772,18.77973 -10.193001,3.2202 -11.66388,3.54244 -13.571421,2.97329 -1.533062,-0.45743 -2.515721,-1.3079 -3.467157,-3.00076 -1.311089,-2.33276 -1.325765,-2.6404 -1.169855,-24.52273 l 0.157891,-22.16034 32.190133,-4.38431 c 23.323031,-3.1766 32.355871,-4.62134 32.791821,-5.24481 0.33092,-0.47327 1.98808,-2.83552 3.68255,-5.24943 4.81472,-6.85892 6.37511,-12.23533 8.40739,-28.9682 0.83791,-6.89898 0.89871,-9.43694 0.35314,-14.74128 -1.48506,-14.43879 -5.50001,-25.19877 -20.57625,-55.14396 -18.089011,-35.92929 -21.769432,-46.60972 -21.770429,-63.17689 -6.62e-4,-10.75359 2.791072,-19.85128 9.047024,-29.48255 5.835115,-8.98338 19.928665,-21.40453 34.626875,-30.51793 2.51959,-1.56223 4.58108,-3.06405 4.58108,-3.33736 0,-0.84818 -9.72925,-5.42309 -13.67342,-6.429543 -5.1721,-1.319802 -13.79083,-2.471511 -29.347018,-3.921613 C 67.173549,93.680475 55.218707,91.588418 45.668961,87.946829 41.477366,86.348454 41.025335,86.024561 41.371438,84.867557 42.333364,81.651901 46.156155,73.466973 49.23956,68.021236 67.712262,35.395762 98.797369,18.921667 141.92987,18.898384 c 7.95289,-0.0043 9.21979,0.127278 9.71307,1.008728 1.14063,2.038193 -0.57247,3.172474 -8.63022,5.714253 -9.09353,2.86851 -21.81449,7.603741 -25.62813,9.53978 -9.18616,4.663453 -12.23369,9.469109 -8.68179,13.690306 4.63141,5.504113 17.68747,7.532409 74.62279,11.59286 9.59688,0.684419 21.37485,1.602052 26.17329,2.039183 4.79843,0.437132 8.8286,0.69951 8.95593,0.583063 0.12732,-0.116447 -0.51558,-4.863472 -1.42869,-10.548944 -1.30767,-8.142294 -1.57219,-11.308363 -1.24578,-14.910898 0.92288,-10.185613 2.1498,-12.407398 9.60532,-17.393955 7.9702,-5.330795 19.19369,-8.370239 26.98835,-7.308736 3.82974,0.521547 8.12772,2.367141 9.78997,4.20391 1.04505,1.154774 1.02208,1.263875 -0.72519,3.444505 -14.46863,18.057154 -15.82368,21.095696 -15.83428,35.506503 -0.004,6.092018 0.0144,6.174727 1.34924,5.893364 8.02316,-1.691218 51.48196,-2.370189 65.73406,-1.026984 60.99497,5.748537 103.80482,27.566615 126.78301,64.615088 17.02809,27.45494 20.6426,63.44028 10.06743,100.22933 -10.1019,35.14265 -32.09476,70.92714 -63.88513,103.94725 -4.03283,4.18883 -7.90623,7.27717 -16.55192,13.19723 -30.8175,21.10195 -33.49583,23.77127 -47.76393,47.60307 -3.34064,5.57982 -6.15729,10.23566 -6.25924,10.34633 -0.10195,0.11068 -9.61647,-1.97132 -21.14339,-4.62666 -24.15397,-5.5641 -36.05988,-7.94819 -48.33468,-9.67874 -4.79843,-0.67649 -9.46901,-1.36058 -10.37906,-1.52019 l -1.65463,-0.29019 -6e-4,24.20277 c -4.7e-4,13.31152 -0.1789,34.50552 -0.3965,47.09777 l -0.39563,22.895 -3.25784,2.82702 c -4.14405,3.59603 -6.6113,3.77899 -11.65565,0.86437 l -2.5e-4,0 z M 323.82669,333.8754 c 31.68673,-36.25474 47.09153,-71.81831 52.38608,-120.93863 0.82437,-7.64809 0.40436,-18.88176 -1.02357,-27.37666 -2.80427,-16.68295 -9.73722,-30.56569 -20.64835,-41.3469 -4.93137,-4.87265 -8.74077,-7.77792 -15.37891,-11.72885 -19.8057,-11.7881 -45.05855,-17.28135 -79.57281,-17.30947 l -14.59085,-0.0119 0.0139,1.35379 c 0.46862,45.57625 1.76813,193.93406 1.77769,202.94986 l 0.0134,12.66706 34.44645,5.44478 c 18.94555,2.99463 34.6193,5.28181 34.83056,5.08264 0.2113,-0.19919 3.69716,-4.15276 7.74639,-8.78573 z m -132.43482,-3.91254 c 17.01166,-0.65402 30.9711,-1.25967 31.02097,-1.34587 0.23081,-0.39899 -4.27107,-218.2447 -4.51454,-218.4587 -0.5395,-0.47419 -51.14153,-5.94573 -51.98699,-5.62129 -1.35032,0.51816 -4.94549,8.57587 -6.6239,14.84591 -2.28978,8.55391 -3.43842,17.34402 -3.53705,27.0677 l -0.0885,8.72443 2.78841,6.61853 c 7.81418,18.5477 13.13578,39.23571 16.46841,64.02182 1.55569,11.57028 1.56097,11.74069 0.58722,18.95307 -3.62074,26.81836 -12.48212,57.45464 -24.77299,85.64725 -0.44613,1.02333 3.36652,0.98087 40.65895,-0.45285 l 0,0 z m -41.05581,-18.3498 c 1.74994,-3.97112 3.18721,-7.52378 3.19393,-7.89481 0.008,-0.42972 -2.22651,-0.82023 -6.15506,-1.07578 -3.392,-0.22065 -6.84416,-0.53218 -7.67148,-0.69227 l -1.50421,-0.29109 -0.0307,8.76066 -0.0307,8.76066 4.50825,-0.17358 4.50825,-0.17357 3.1817,-7.22022 -1e-5,0 z m 7.59727,-18.45805 c 2.04536,-3.86432 3.57299,-7.1719 3.39471,-7.35017 -0.40441,-0.40441 -22.0459,-5.17854 -23.47473,-5.17854 -0.94983,0 -1.02032,0.67032 -0.77516,7.37064 0.14833,4.05385 0.41128,8.52888 0.58434,9.94452 l 0.31466,2.57388 8.11867,-0.16715 8.11866,-0.16714 3.71885,-7.02604 0,0 z m -0.36412,-12.01902 c 2.64501,-0.66601 2.83298,-0.86389 4.71547,-4.9639 3.93695,-8.57458 5.44442,-15.99021 4.61304,-22.69278 l -0.4193,-3.38044 -4.60017,1.37156 c -6.11154,1.82218 -13.5287,2.67799 -23.22775,2.68005 -4.38477,0.001 -7.97232,0.12027 -7.97232,0.2652 0,0.14493 0.39229,1.97254 0.87175,4.06137 0.47947,2.08883 1.30254,7.18234 1.82904,11.31892 0.5265,4.13659 1.08995,7.96287 1.25211,8.50286 0.21113,0.70308 1.78427,1.25575 5.5416,1.94687 9.60176,1.76613 13.18918,1.94972 17.39653,0.89029 l 0,0 z m -7.33628,-29.45375 c 5.3368,-0.66927 16.56602,-3.32901 17.34789,-4.109 0.87714,-0.87503 2.31081,-12.8376 1.98832,-16.59052 -0.36007,-4.19019 -3.15777,-13.53332 -4.0524,-13.53332 -0.33467,0 -2.42127,0.76826 -4.63688,1.70724 -8.0048,3.39244 -17.23376,5.46963 -28.54705,6.42517 -3.79297,0.32036 -4.66247,0.58074 -4.65996,1.39546 0.002,0.55089 0.68314,4.20549 1.51431,8.12133 0.83118,3.91585 1.68472,9.56388 1.89677,12.55118 l 0.38553,5.43146 6.975,-0.39768 c 3.83625,-0.21872 9.14106,-0.66931 11.78847,-1.00132 z M 143.1419,221.0282 c 6.53415,-1.92038 14.5566,-5.11508 18.52304,-7.37623 2.24808,-1.28155 2.39396,-1.52885 2.21292,-3.75118 -0.59203,-7.26731 -5.90082,-21.06469 -7.87097,-20.45642 -0.52826,0.1631 -2.99116,0.71796 -5.47311,1.23301 -10.49803,2.17856 -17.08119,4.21084 -34.44645,10.63393 -1.93418,0.71541 -2.02426,1.55864 -0.74578,6.98134 1.25304,5.31478 2.75586,7.95258 7.23728,12.70313 l 3.90614,4.14071 5.25545,-1.15098 c 2.8905,-0.63304 8.02116,-1.96383 11.40148,-2.95731 l 0,0 z m -6.14603,-30.13304 c 7.94967,-1.89699 17.14802,-5.54104 17.14802,-6.79342 0,-0.37907 -0.51704,-2.16901 -1.14898,-3.97764 -0.63193,-1.80863 -1.62053,-5.72524 -2.19688,-8.70358 -0.57635,-2.97834 -1.08855,-5.47418 -1.13822,-5.54631 -0.19611,-0.28481 -21.35468,1.07599 -25.50938,1.6406 -5.63727,0.7661 -13.30045,2.9264 -14.74324,4.15621 -2.26101,1.92727 -2.95806,4.24153 -2.63063,8.73389 0.40169,5.51118 3.33107,12.74643 5.88776,14.54209 l 1.7999,1.26415 7.35488,-1.72474 c 4.04518,-0.94861 10.87473,-2.56467 15.17677,-3.59125 l 0,0 z m -4.32076,-28.33424 16.13651,-3.69322 -0.49271,-3.0497 c -0.63699,-3.94268 -0.63259,-13.05819 0.008,-16.82271 l 0.50083,-2.94268 -11.632,0.43414 c -14.3556,0.53579 -19.8605,1.42565 -24.20843,3.91329 -5.56085,3.18159 -9.44789,8.89755 -10.25208,15.07584 -0.61948,4.75919 2.88728,9.76778 7.55944,10.79691 2.92195,0.64361 4.47761,0.3856 22.38032,-3.71187 l 0,0 z m 16.14402,-32.2955 c 0.21519,-0.0332 0.7238,-1.48178 1.13025,-3.21914 0.40645,-1.73737 1.91329,-5.73105 3.34853,-8.87485 l 2.60953,-5.71601 -7.65073,-0.50968 c -8.48156,-0.56502 -9.69852,-0.33739 -15.10367,2.82511 -3.83554,2.24414 -13.31872,13.55061 -11.97238,14.27428 0.84657,0.45503 9.57573,1.70899 13.40847,1.92615 1.88949,0.10706 12.30879,-0.40978 14.23,-0.70586 z"
       id="path3808"
       inkscape:connector-curvature="0" />
  </g>
  <g
     inkscape:groupmode="layer"
     id="layer2"
     inkscape:label="ToolkitLogo"
     style="fill:#0c5596;fill-opacity:1;display:inline">
    <path
       style="fill:none;stroke:#000000;stroke-width:3;stroke-linecap:butt;stroke-linejoin:miter;stroke-opacity:1;stroke-miterlimit:4;stroke-dasharray:none"
       d="m 289.41035,377.25632 0.60168,72.20216 70.9988,42.11793 115.52347,-66.18531 0.60168,-70.9988 -30.11276,-37.44089 -0.37465,-40.09704 c -0.33246,-2.59353 -4.3717,-9.94594 -10.42715,-6.69793 l -111.31167,65.58363 c -6.83164,3.8263 -6.75768,5.29825 -6.61853,10.83033 l 0.60168,31.88929 z"
       id="path3812"
       inkscape:connector-curvature="0"
       sodipodi:nodetypes="cccccccccccc" />
    <path
       style="fill:none;stroke:#000000;stroke-width:3;stroke-linecap:butt;stroke-linejoin:miter;stroke-opacity:1;stroke-miterlimit:4;stroke-dasharray:none"
       d="m 318.60785,378.40899 0.18366,14.49113 c 3.50476,7.42623 2.11039,10.88771 1.90644,12.03369 l 0,11.43201 c 3.16794,13.50662 8.96821,9.48098 10.83033,5.41517 l 0,-15.04212 c -0.21093,-5.00367 -2.02068,-8.40852 -4.21179,-11.43201 l 0.60168,-45.12635 c -0.18146,-1.35632 1.5251,-2.51056 6.01685,-4.81348 l 104.09145,-59.56679 c 1.82183,-1.08657 8.77287,-9.1168 -0.60168,-15.6438 l -1.20337,0"
       id="path3814"
       inkscape:connector-curvature="0"
       sodipodi:nodetypes="cccccccccccc" />
    <path
       style="fill:none;stroke:#000000;stroke-width:3;stroke-linecap:butt;stroke-linejoin:miter;stroke-opacity:1;stroke-miterlimit:4;stroke-dasharray:none"
       d="m 360.97993,491.94492 0.56198,-72.49571 -27.91178,-34.09359 -6.18181,-4.49585"
       id="path3816"
       inkscape:connector-curvature="0"
       sodipodi:nodetypes="cccc" />
    <path
       style="fill:none;stroke:#000000;stroke-width:1px;stroke-linecap:butt;stroke-linejoin:miter;stroke-opacity:1"
       d="M 333.25547,384.98097 446.58856,316.79379"
       id="path3818"
       inkscape:connector-curvature="0"
       sodipodi:nodetypes="cc" />
    <path
       style="fill:none;stroke:#000000;stroke-width:1px;stroke-linecap:butt;stroke-linejoin:miter;stroke-opacity:1"
       d="m 327.44833,374.49063 109.02454,-62.75468 10.49035,5.24517"
       id="path3820"
       inkscape:connector-curvature="0"
       sodipodi:nodetypes="ccc" />
    <path
       style="fill:none;stroke:#000000;stroke-width:3;stroke-linecap:butt;stroke-linejoin:miter;stroke-opacity:1;stroke-miterlimit:4;stroke-dasharray:none"
       d="m 289.23353,377.11322 29.4104,-16.48482"
       id="path3822"
       inkscape:connector-curvature="0" />
    <path
       style="fill:none;stroke:#000000;stroke-width:3;stroke-linecap:butt;stroke-linejoin:miter;stroke-opacity:1;stroke-miterlimit:4;stroke-dasharray:none"
       d="m 328.19763,356.13254 76.05493,-44.39659 32.78231,0 -1e-5,-25.28921"
       id="path3824"
       inkscape:connector-curvature="0"
       sodipodi:nodetypes="cccc" />
    <path
       style="fill:none;stroke:#000000;stroke-width:1px;stroke-linecap:butt;stroke-linejoin:miter;stroke-opacity:1"
       d="M 361.16726,419.44921 476.9356,354.63393"
       id="path3826"
       inkscape:connector-curvature="0" />
    <path
       style="fill:#ffcc00;fill-opacity:1;fill-rule:nonzero;stroke:#d4aa00;stroke-width:1.87327420999999990;stroke-miterlimit:4;stroke-opacity:1;stroke-dasharray:none"
       d="m 361.90612,455.04869 c 0.13192,-19.31813 0.3448,-35.23211 0.47305,-35.36439 0.31638,-0.32629 113.46281,-63.63814 113.72955,-63.63814 0.27897,0 0.26665,14.54614 -0.0377,44.48294 l -0.24843,24.43891 -56.915,32.60229 c -31.30325,17.93126 -56.98843,32.60229 -57.07818,32.60229 -0.0897,0 -0.0553,-15.80576 0.0767,-35.1239 z"
       id="path3828"
       inkscape:connector-curvature="0" />
    <path
       style="fill:#ffcc00;fill-opacity:1;fill-rule:nonzero;stroke:#d4aa00;stroke-width:1.87327421;stroke-miterlimit:4;stroke-opacity:1;stroke-dasharray:none"
       d="m 347.94809,401.69103 -13.53803,-16.55699 55.68785,-33.51547 c 30.62831,-18.4335 55.94073,-33.5719 56.24982,-33.64088 0.36248,-0.0809 5.6824,6.26343 14.98619,17.87196 7.93332,9.89855 14.46589,18.11283 14.51684,18.25396 0.0802,0.22218 -112.30263,63.35314 -113.8038,63.9292 -0.39825,0.15282 -4.48566,-4.58485 -14.09887,-16.34178 z"
       id="path3830"
       inkscape:connector-curvature="0" />
    <path
       style="fill:#ffcc00;fill-opacity:1;fill-rule:nonzero;stroke:#d4aa00;stroke-width:3;stroke-miterlimit:4;stroke-opacity:1;stroke-dasharray:none"
       d="m 330.65915,382.35382 -2.35548,-1.73599 0.10756,-2.9561 0.10755,-2.9561 46.83186,-26.95777 c 25.75752,-14.82677 50.06109,-28.81318 54.00793,-31.08091 l 7.17608,-4.12315 4.20505,2.10891 c 2.31277,1.1599 4.05708,2.24608 3.87624,2.41374 -0.41452,0.38428 -111.32036,67.08875 -111.48216,67.05109 -0.0655,-0.0153 -1.17911,-0.80892 -2.47463,-1.76372 z"
       id="path3832"
       inkscape:connector-curvature="0" />
    <path
       style="fill:#ffcc00;fill-opacity:1;fill-rule:nonzero;stroke:#d4aa00;stroke-width:1.87327421;stroke-miterlimit:4;stroke-opacity:1;stroke-dasharray:none"
       d="m 328.33146,364.93131 0,-8.03676 37.95342,-22.15864 37.95341,-22.15865 14.48655,0.0981 14.48656,0.0981 -52.07345,29.97239 c -28.64039,16.48481 -52.23838,30.02858 -52.43997,30.09727 -0.23142,0.0788 -0.36652,-2.83752 -0.36652,-7.91187 z"
       id="path3834"
       inkscape:connector-curvature="0" />
    <path
       style="fill:#ffcc00;fill-opacity:1;fill-rule:nonzero;stroke:#d4aa00;stroke-width:1.87327421;stroke-miterlimit:4;stroke-opacity:1;stroke-dasharray:none"
       d="m 303.67557,377.18666 c -6.03954,-0.26781 -11.1581,-0.54597 -11.37457,-0.61813 -0.21648,-0.0722 5.38719,-3.36856 12.45258,-7.32535 7.0654,-3.95678 12.88572,-7.15389 12.93406,-7.10468 0.0483,0.0492 0.21072,3.5878 0.36085,7.86355 l 0.27296,7.77409 -1.83245,-0.0513 c -1.00784,-0.0282 -6.77389,-0.27039 -12.81343,-0.53821 z"
       id="path3836"
       inkscape:connector-curvature="0" />
    <path
       style="fill:#aa8800;fill-opacity:1;fill-rule:nonzero;stroke:#806600;stroke-width:1.87327420999999990;stroke-miterlimit:4;stroke-opacity:1;stroke-dasharray:none"
       d="m 325.45226,469.63727 -34.53753,-20.48939 -0.19844,-2.62258 c -0.10915,-1.44242 -0.29534,-17.41677 -0.41376,-35.49855 l -0.21531,-32.87596 3.66761,0.0349 c 2.01718,0.0192 8.21966,0.22992 13.78328,0.46832 l 10.11568,0.43346 0.41351,7.49309 c 0.34962,6.33552 0.56021,7.92399 1.36316,10.28225 0.93383,2.74264 0.94645,2.93001 0.7574,11.23964 -0.181,7.95557 -0.1438,8.6086 0.63514,11.14987 2.17547,7.0974 6.30661,9.12375 9.94671,4.87893 l 1.35819,-1.58382 -0.12975,-9.92835 c -0.14321,-10.95931 -0.28189,-11.70675 -2.95378,-15.91989 l -1.16292,-1.83373 0.13134,-5.89096 c 0.0722,-3.24003 0.2414,-6.00097 0.37592,-6.13542 0.13452,-0.13445 1.2729,0.51255 2.52973,1.43778 1.75726,1.29362 5.47929,5.58581 16.11207,18.5802 l 13.82692,16.89796 -0.19233,30.61929 c -0.10578,16.8406 -0.301,32.67422 -0.43382,35.18583 l -0.24149,4.56656 -34.53753,-20.48939 z"
       id="path3838"
       inkscape:connector-curvature="0" />
    <path
       style="fill:#aa8800;fill-opacity:1;fill-rule:nonzero;stroke:#aa8800;stroke-width:1.87327420999999990;stroke-miterlimit:4;stroke-opacity:1;stroke-dasharray:none"
       d="m 331.23285,381.43542 -1.77,-1.22403 0.0122,-2.43525 0.0121,-2.43526 53.537,-30.77552 53.53701,-30.77552 3.05263,1.58948 3.05264,1.58948 -54.27113,32.63018 c -29.84912,17.9466 -54.52342,32.727 -54.83178,32.84533 -0.30928,0.11868 -1.35426,-0.33366 -2.33067,-1.00889 l 0,0 z"
       id="path3840"
       inkscape:connector-curvature="0" />
    <path
       style="fill:#e3dedb;fill-opacity:1;fill-rule:nonzero;stroke:#c8beb7;stroke-width:1.87327420999999990;stroke-miterlimit:4;stroke-opacity:1;stroke-dasharray:none"
       d="m 325.18696,424.19792 c -1.21792,-0.95802 -2.26301,-2.94729 -3.29022,-6.26278 -0.71327,-2.30218 -0.75462,-3.03992 -0.50799,-9.06265 0.37465,-9.14937 0.31685,-10.09593 -0.80528,-13.18736 -0.9781,-2.69461 -0.9941,-2.89498 -1.07129,-13.41314 -0.0431,-5.87271 -0.19277,-17.25285 -0.33259,-25.2892 -0.28489,-16.37398 -0.32607,-16.06252 2.40808,-18.21148 2.23201,-1.7543 114.59173,-67.7718 115.34548,-67.7718 0.87097,0 3.30289,2.6252 4.01849,4.33787 1.14371,2.73729 0.0546,6.62955 -2.51945,9.0039 -0.69492,0.64101 -24.95106,14.69331 -53.90251,31.22733 -28.95145,16.53401 -53.38145,30.50869 -54.28888,31.05483 -3.23008,1.94403 -2.97758,-0.0355 -3.30473,25.90753 l -0.29056,23.04127 1.21731,2.03803 c 2.56044,4.28672 2.77135,5.33395 2.996,14.87641 0.20028,8.50716 0.18819,8.69786 -0.63579,10.0311 -0.81881,1.32487 -2.44144,2.46486 -3.50839,2.46486 -0.29153,0 -0.97899,-0.35312 -1.52768,-0.78472 l 0,0 z"
       id="path3842"
       inkscape:connector-curvature="0" />
    <path
       style="fill:#e3dedb;fill-opacity:1;fill-rule:nonzero;stroke:#c8beb7;stroke-width:1.873;stroke-miterlimit:4;stroke-opacity:1;stroke-dasharray:none"
       d="m 441.75821,313.50021 -4.02754,-2.04462 0,-12.23069 0,-12.23068 1.41857,-1.21425 c 2.07163,-1.77324 3.5737,-5.0522 3.59573,-7.84935 0.0203,-2.5829 -0.66019,-4.24811 -2.60287,-6.36902 -0.71618,-0.78188 -1.24189,-1.48187 -1.16823,-1.55552 0.36971,-0.36971 2.85568,0.87515 4.08543,2.04579 2.87246,2.7344 2.78352,2.04427 3.08744,23.95585 0.14934,10.76664 0.12921,19.56703 -0.0447,19.55641 -0.17395,-0.0106 -2.12866,-0.93938 -4.3438,-2.06392 z"
       id="path3844"
       inkscape:connector-curvature="0" />
  </g>
</svg>
