<?xml version="1.0" encoding="UTF-8" standalone="no"?>
<!--Generator: Xara Designer (www.xara.com), SVG filter version: 3.0.0.4-->

<svg
   xmlns:dc="http://purl.org/dc/elements/1.1/"
   xmlns:cc="http://creativecommons.org/ns#"
   xmlns:rdf="http://www.w3.org/1999/02/22-rdf-syntax-ns#"
   xmlns:svg="http://www.w3.org/2000/svg"
   xmlns="http://www.w3.org/2000/svg"
   xmlns:sodipodi="http://sodipodi.sourceforge.net/DTD/sodipodi-0.dtd"
   xmlns:inkscape="http://www.inkscape.org/namespaces/inkscape"
   version="1.1"
   overflow="visible"
   width="256"
   height="256"
   viewBox="0 0 204.80002 204.8"
   id="svg4717"
   inkscape:version="0.48.4 r9939"
   sodipodi:docname="envoy.svg"
   style="fill-rule:evenodd;stroke-width:0.50099999;stroke-linejoin:bevel;overflow:visible"
   inkscape:export-filename="C:\Users\Bas des Bouvrie\workspace\DominionToolkit\res\drawable-ldpi\envoy_icon.png"
   inkscape:export-xdpi="11.25"
   inkscape:export-ydpi="11.25">
  <metadata
     id="metadata4807">
    <rdf:RDF>
      <cc:Work
         rdf:about="">
        <dc:format>image/svg+xml</dc:format>
        <dc:type
           rdf:resource="http://purl.org/dc/dcmitype/StillImage" />
        <dc:title></dc:title>
      </cc:Work>
    </rdf:RDF>
  </metadata>
  <sodipodi:namedview
     pagecolor="#ffffff"
     bordercolor="#666666"
     borderopacity="1"
     objecttolerance="10"
     gridtolerance="10"
     guidetolerance="10"
     inkscape:pageopacity="0"
     inkscape:pageshadow="2"
     inkscape:window-width="1920"
     inkscape:window-height="1018"
     id="namedview4805"
     showgrid="false"
     inkscape:zoom="1.7940564"
     inkscape:cx="241.56302"
     inkscape:cy="116.89209"
     inkscape:window-x="-8"
     inkscape:window-y="-8"
     inkscape:window-maximized="1"
     inkscape:current-layer="svg4717" />
  <defs
     id="defs4719">
    <marker
       id="DefaultArrow2"
       markerUnits="strokeWidth"
       viewBox="0 0 1 1"
       markerWidth="1"
       markerHeight="1"
       overflow="visible"
       orient="auto"
       style="overflow:visible">
      <!-- REF_ARROW_STRAIGHT (-2) -->
      <g
         transform="scale(0.00925926,0.00925926)"
         id="g4722">
        <!-- 1/108 -->
        <path
           d="M -9,54 -9,-54 117,0 z"
           id="path4724"
           inkscape:connector-curvature="0" />
      </g>
    </marker>
    <marker
       id="DefaultArrow3"
       markerUnits="strokeWidth"
       viewBox="0 0 1 1"
       markerWidth="1"
       markerHeight="1"
       overflow="visible"
       orient="auto"
       style="overflow:visible">
      <!-- REF_ARROW_ANGLED -->
      <g
         transform="scale(0.00925926,0.00925926)"
         id="g4727">
        <path
           d="M -27,54 -9,0 -27,-54 135,0 z"
           id="path4729"
           inkscape:connector-curvature="0" />
      </g>
    </marker>
    <marker
       id="DefaultArrow4"
       markerUnits="strokeWidth"
       viewBox="0 0 1 1"
       markerWidth="1"
       markerHeight="1"
       overflow="visible"
       orient="auto"
       style="overflow:visible">
      <!-- REF_ARROW_ROUNDED -->
      <g
         transform="scale(0.00925926,0.00925926)"
         id="g4732">
        <path
           d="m -9,0 0,-45 c 0,-6.708 11.808,-11.58 18,-9 l 108,45 c 3.916,1.631 9,4.758 9,9 0,4.242 -5.084,7.369 -9,9 L 9,54 C 2.808,56.58 -9,51.708 -9,45 z"
           id="path4734"
           inkscape:connector-curvature="0" />
      </g>
    </marker>
    <marker
       id="DefaultArrow5"
       markerUnits="strokeWidth"
       viewBox="0 0 1 1"
       markerWidth="1"
       markerHeight="1"
       overflow="visible"
       orient="auto"
       style="overflow:visible">
      <!-- REF_ARROW_SPOT -->
      <g
         transform="scale(0.00925926,0.00925926)"
         id="g4737">
        <path
           d="M -54,0 C -54,29.807 -29.807,54 0,54 29.807,54 54,29.807 54,0 54,-29.807 29.807,-54 0,-54 -29.807,-54 -54,-29.807 -54,0 z"
           id="path4739"
           inkscape:connector-curvature="0" />
      </g>
    </marker>
    <marker
       id="DefaultArrow6"
       markerUnits="strokeWidth"
       viewBox="0 0 1 1"
       markerWidth="1"
       markerHeight="1"
       overflow="visible"
       orient="auto"
       style="overflow:visible">
      <!-- REF_ARROW_DIAMOND -->
      <g
         transform="scale(0.00925926,0.00925926)"
         id="g4742">
        <path
           d="M -63,0 0,63 63,0 0,-63 z"
           id="path4744"
           inkscape:connector-curvature="0" />
      </g>
    </marker>
    <marker
       id="DefaultArrow7"
       markerUnits="strokeWidth"
       viewBox="0 0 1 1"
       markerWidth="1"
       markerHeight="1"
       overflow="visible"
       orient="auto"
       style="overflow:visible">
      <!-- REF_ARROW_FEATHER -->
      <g
         transform="scale(0.00925926,0.00925926)"
         id="g4747">
        <path
           d="m 18,-54 90,0 L 63,0 108,54 18,54 -36,0 z"
           id="path4749"
           inkscape:connector-curvature="0" />
      </g>
    </marker>
    <marker
       id="DefaultArrow8"
       markerUnits="strokeWidth"
       viewBox="0 0 1 1"
       markerWidth="1"
       markerHeight="1"
       overflow="visible"
       orient="auto"
       style="overflow:visible">
      <!-- REF_ARROW_FEATHER2 -->
      <g
         transform="scale(0.00925926,0.00925926)"
         id="g4752">
        <path
           d="m -36,0 54,-54 36,0 -36,36 9,0 36,-36 36,0 -36,36 9,0 36,-36 36,0 -54,54 54,54 -36,0 -36,-36 -9,0 36,36 -36,0 -36,-36 -9,0 36,36 -36,0 z"
           id="path4754"
           inkscape:connector-curvature="0" />
      </g>
    </marker>
    <marker
       id="DefaultArrow9"
       markerUnits="strokeWidth"
       viewBox="0 0 1 1"
       markerWidth="1"
       markerHeight="1"
       overflow="visible"
       orient="auto"
       style="overflow:visible">
      <!-- REF_ARROW_HOLLOWDIAMOND -->
      <g
         transform="scale(0.00925926,0.00925926)"
         id="g4757">
        <path
           d="M 0,45 -45,0 0,-45 45,0 z M 0,63 -63,0 0,-63 63,0 z"
           id="path4759"
           inkscape:connector-curvature="0" />
      </g>
    </marker>
    <filter
       id="StainedFilter"
       color-interpolation-filters="sRGB">
      <feBlend
         mode="multiply"
         in2="BackgroundImage"
         in="SourceGraphic"
         result="blend"
         id="feBlend4762" />
      <feComposite
         in="blend"
         in2="SourceAlpha"
         operator="in"
         result="comp"
         id="feComposite4764" />
    </filter>
    <filter
       id="BleachFilter"
       color-interpolation-filters="sRGB">
      <feBlend
         mode="screen"
         in2="BackgroundImage"
         in="SourceGraphic"
         result="blend"
         id="feBlend4767" />
      <feComposite
         in="blend"
         in2="SourceAlpha"
         operator="in"
         result="comp"
         id="feComposite4769" />
    </filter>
    <filter
       id="InvertTransparencyBitmapFilter"
       color-interpolation-filters="sRGB">
      <feComponentTransfer
         id="feComponentTransfer4772">
        <feFuncR
           type="gamma"
           amplitude="1.055"
           exponent=".416666666"
           offset="-0.055"
           id="feFuncR4774" />
        <feFuncG
           type="gamma"
           amplitude="1.055"
           exponent=".416666666"
           offset="-0.055"
           id="feFuncG4776" />
        <feFuncB
           type="gamma"
           amplitude="1.055"
           exponent=".416666666"
           offset="-0.055"
           id="feFuncB4778" />
      </feComponentTransfer>
      <feComponentTransfer
         id="feComponentTransfer4780">
        <feFuncR
           type="linear"
           slope="-1"
           intercept="1"
           id="feFuncR4782" />
        <feFuncG
           type="linear"
           slope="-1"
           intercept="1"
           id="feFuncG4784" />
        <feFuncB
           type="linear"
           slope="-1"
           intercept="1"
           id="feFuncB4786" />
        <feFuncA
           type="linear"
           slope="1"
           intercept="0"
           id="feFuncA4788" />
      </feComponentTransfer>
      <feComponentTransfer
         id="feComponentTransfer4790">
        <feFuncR
           type="gamma"
           amplitude="1"
           exponent="2.4"
           offset="0"
           id="feFuncR4792" />
        <feFuncG
           type="gamma"
           amplitude="1"
           exponent="2.4"
           offset="0"
           id="feFuncG4794" />
        <feFuncB
           type="gamma"
           amplitude="1"
           exponent="2.4"
           offset="0"
           id="feFuncB4796" />
      </feComponentTransfer>
    </filter>
  </defs>
  <g
     id="Document"
     font-size="16"
     transform="matrix(1,0,0,-1,22.637601,5.6039484)"
     style="font-size:16px;fill:none;stroke:#000000;font-family:Times New Roman">
    <g
       id="Spread"
       transform="translate(0,-841.891)">
      <g
         id="Layer 1">
        <path
           d="m 52.838,674.97 0,12.676 0.442,0 22.216,56.381 2.562,-1.008 -21.819,-55.373 44.4,0 -19.35,55.808 2.606,0.898 19.665,-56.706 0.402,0 0,-12.676 -51.124,0 z"
           stroke-miterlimit="79.8403193612775"
           id="path4801"
           inkscape:connector-curvature="0"
           style="fill:#000000;fill-rule:evenodd;stroke:none;stroke-width:2.75600004;marker-start:none;marker-end:none" />
        <path
           d="m 86.855,691.399 c -1.522,1.003 -2.475,2.403 -2.838,4.156 -0.304,1.449 -0.127,2.816 0.506,4.083 -3.852,-0.33 -7.671,-0.231 -11.413,0.259 0.572,-1.284 0.688,-2.65 0.341,-4.072 -0.43,-1.748 -1.444,-3.104 -3.003,-4.046 -1.566,-0.936 -3.236,-1.195 -4.978,-0.771 -1.741,0.43 -3.097,1.449 -4.034,3.003 -0.942,1.56 -1.212,3.23 -0.782,4.971 0.342,1.379 1.041,2.502 2.088,3.373 -3.516,1.219 -6.889,2.8 -10.063,4.718 0,-1.334 -0.403,-2.579 -1.207,-3.709 -1.053,-1.455 -2.497,-2.331 -4.299,-2.624 -1.791,-0.302 -3.45,0.083 -4.905,1.125 -1.455,1.053 -2.331,2.497 -2.623,4.293 -0.303,1.797 0.082,3.451 1.124,4.905 0.865,1.202 2.006,2.012 3.379,2.403 -2.773,2.558 -5.291,5.423 -7.485,8.57 -0.562,-1.267 -1.472,-2.253 -2.723,-2.954 -1.581,-0.864 -3.257,-1.047 -5.01,-0.551 -1.747,0.502 -3.081,1.549 -3.951,3.12 -0.871,1.565 -1.053,3.252 -0.552,5.005 0.502,1.752 1.544,3.074 3.114,3.95 1.252,0.695 2.569,0.943 3.925,0.756 -0.866,2.028 -1.621,4.133 -2.249,6.316 -0.65,2.248 -1.146,4.508 -1.488,6.768 -1.047,-0.876 -2.293,-1.361 -3.714,-1.433 -1.792,-0.1 -3.385,0.474 -4.74,1.698 -1.351,1.217 -2.095,2.738 -2.183,4.529 -0.099,1.792 0.474,3.385 1.686,4.74 1.224,1.356 2.745,2.09 4.536,2.189 1.444,0.071 2.751,-0.287 3.908,-1.069 0.204,3.83 0.827,7.594 1.835,11.232 -1.366,-0.398 -2.75,-0.315 -4.112,0.242 -1.664,0.672 -2.86,1.869 -3.571,3.543 -0.716,1.682 -0.732,3.373 -0.061,5.038 0.668,1.665 1.864,2.861 3.545,3.571 1.68,0.711 3.367,0.739 5.031,0.061 1.307,-0.529 2.321,-1.378 3.032,-2.53 1.681,3.312 3.714,6.443 6.063,9.342 -1.346,0.17 -2.536,0.749 -3.545,1.737 -1.294,1.245 -1.956,2.799 -1.989,4.623 -0.034,1.819 0.573,3.396 1.818,4.684 1.246,1.301 2.806,1.963 4.625,1.996 1.824,0.033 3.394,-0.579 4.695,-1.819 1.064,-1.041 1.692,-2.265 1.885,-3.682 2.915,2.398 6.118,4.498 9.568,6.245 -1.202,0.744 -2.078,1.807 -2.585,3.191 -0.634,1.681 -0.562,3.373 0.193,5.027 0.761,1.664 1.984,2.821 3.67,3.444 1.676,0.634 3.373,0.567 5.027,-0.188 1.664,-0.765 2.821,-1.989 3.45,-3.67 0.496,-1.334 0.557,-2.662 0.176,-3.963 3.693,1.014 7.402,1.61 11.083,1.814 -0.793,1.151 -1.156,2.452 -1.09,3.902 0.076,1.791 0.81,3.323 2.16,4.546 1.345,1.235 2.938,1.814 4.723,1.725 1.797,-0.076 3.323,-0.81 4.547,-2.154 1.235,-1.345 1.813,-2.932 1.73,-4.729 -0.071,-1.444 -0.556,-2.706 -1.449,-3.77 3.786,-0.567 7.484,-1.537 11.023,-2.883 -0.27,1.417 -0.061,2.795 0.628,4.118 0.827,1.587 2.133,2.673 3.868,3.218 1.737,0.551 3.424,0.408 5.016,-0.424 1.588,-0.827 2.673,-2.127 3.224,-3.869 0.541,-1.736 0.403,-3.422 -0.429,-5.015 -0.651,-1.257 -1.593,-2.183 -2.795,-2.773 3.13,-1.984 6.074,-4.304 8.746,-6.916 0.298,1.333 1.004,2.469 2.095,3.395 1.362,1.163 2.97,1.675 4.795,1.532 1.813,-0.155 3.323,-0.909 4.487,-2.282 1.162,-1.361 1.669,-2.976 1.526,-4.789 -0.144,-1.819 -0.909,-3.335 -2.276,-4.497 -1.119,-0.949 -2.398,-1.461 -3.814,-1.527 2.11,-3.12 3.907,-6.509 5.334,-10.124 0.871,1.156 2.034,1.934 3.49,2.314 1.741,0.458 3.411,0.216 4.981,-0.711 1.577,-0.92 2.602,-2.265 3.054,-4.001 0.457,-1.736 0.215,-3.411 -0.711,-4.976 -0.92,-1.577 -2.254,-2.608 -4.001,-3.054 -1.356,-0.364 -2.662,-0.292 -3.913,0.199 0.666,-3.743 0.915,-7.49 0.777,-11.178 1.223,0.683 2.563,0.926 4.007,0.728 1.769,-0.259 3.223,-1.13 4.32,-2.596 1.087,-1.455 1.522,-3.091 1.263,-4.866 -0.254,-1.781 -1.13,-3.224 -2.591,-4.316 -1.455,-1.097 -3.097,-1.527 -4.867,-1.267 -1.421,0.198 -2.629,0.799 -3.604,1.78 -0.887,-3.632 -2.155,-7.148 -3.775,-10.494 1.323,0.138 2.601,-0.143 3.808,-0.843 1.554,-0.898 2.569,-2.26 3.032,-4.018 0.468,-1.763 0.247,-3.439 -0.65,-4.999 -0.91,-1.549 -2.26,-2.563 -4.024,-3.025 -1.758,-0.469 -3.439,-0.243 -4.993,0.65 -1.301,0.76 -2.216,1.819 -2.734,3.186 -2.298,-3.021 -4.927,-5.793 -7.848,-8.273 1.318,-0.43 2.392,-1.24 3.202,-2.419 1.03,-1.472 1.378,-3.131 1.053,-4.922 -0.326,-1.791 -1.235,-3.224 -2.718,-4.239 -1.471,-1.03 -3.125,-1.372 -4.921,-1.052 -1.786,0.33 -3.213,1.24 -4.239,2.712 -0.831,1.19 -1.212,2.496 -1.14,3.896 -3.229,-1.769 -6.696,-3.219 -10.367,-4.31 1.003,-0.898 1.642,-2.044 1.929,-3.417 0.358,-1.758 0.033,-3.417 -0.97,-4.944 -1.003,-1.515 -2.397,-2.474 -4.156,-2.838 -1.753,-0.353 -3.417,-0.028 -4.943,0.97 z m -1.362,11.111 -0.567,2.965 c -5.572,-0.595 -11.244,-0.204 -16.721,1.196 l -0.772,-2.772 c 0.386,-0.022 0.782,-0.088 1.179,-0.182 0.485,-0.122 0.948,-0.292 1.378,-0.496 5.01,-1.036 10.235,-1.301 15.503,-0.711 z m 3.671,0.744 c 0.551,0.11 1.097,0.155 1.631,0.132 1.015,0.226 2.023,0.485 3.042,0.783 4.134,1.191 8.009,2.871 11.563,4.955 l -1.747,2.507 c -4.949,-2.893 -10.317,-4.817 -15.828,-5.753 L 88.244,703 c 0.292,0.105 0.595,0.183 0.92,0.254 z m -24.443,1.344 0.672,2.883 c -5.219,1.681 -10.206,4.31 -14.709,7.882 l -1.847,-2.238 c 0.37,-0.177 0.728,-0.386 1.087,-0.634 0.457,-0.336 0.864,-0.711 1.228,-1.136 4.139,-2.914 8.725,-5.197 13.569,-6.757 z m 19.687,3.594 -6.393,33.553 -9.066,-32.417 c 5.065,-1.285 10.3,-1.659 15.459,-1.136 z m 17.664,5.721 -19.582,28.196 4.926,-33.498 c 5.099,0.876 10.071,2.64 14.656,5.302 z m 6.145,-2.784 c 0.424,0.299 0.865,0.535 1.333,0.734 4.404,3.213 8.212,7.12 11.304,11.513 l -2.64,1.604 c -1.218,-1.715 -2.573,-3.373 -4.051,-4.949 -2.469,-2.629 -5.169,-4.917 -8.04,-6.845 l 1.56,-2.464 c 0.17,0.137 0.346,0.275 0.534,0.407 z m -42.189,-0.948 7.765,33.074 -21.346,-25.766 c 4.161,-3.29 8.769,-5.725 13.581,-7.308 z m 46.118,11.745 c 1.345,1.433 2.58,2.932 3.698,4.486 l -29.403,17.814 18.194,-28.709 c 2.683,1.813 5.202,3.946 7.511,6.409 z m -65.486,-7.015 1.781,2.342 c -0.249,0.231 -0.491,0.457 -0.739,0.688 -3.924,3.683 -7.071,7.887 -9.441,12.406 l -2.568,-1.278 c 0.276,-0.33 0.518,-0.683 0.733,-1.069 0.264,-0.48 0.468,-0.97 0.6,-1.461 2.641,-4.397 5.898,-8.305 9.634,-11.628 z m 3.467,4.552 20.42,26.884 -29.811,-14.776 c 2.226,-4.227 5.18,-8.156 8.862,-11.613 0.176,-0.17 0.352,-0.33 0.529,-0.495 z m 72.287,6.558 c 0.27,0.469 0.59,0.894 0.948,1.273 2.745,4.768 4.707,9.992 5.77,15.433 l -3.114,0.402 c -1.075,-5.484 -3.13,-10.819 -6.183,-15.724 l 2.441,-1.626 c 0.044,0.082 0.089,0.16 0.138,0.242 z m 0.86,17.455 -34.099,4.31 28.356,-18.849 c 2.811,4.541 4.723,9.469 5.743,14.539 z m -88.887,-11.905 2.59,1.417 c -2.281,5.098 -3.616,10.526 -3.985,16.005 l -2.865,-0.116 c -0.017,-0.176 -0.045,-0.353 -0.072,-0.529 0.265,-3.296 0.859,-6.614 1.813,-9.909 0.683,-2.392 1.526,-4.68 2.519,-6.868 z m 5.015,2.751 29.42,16.159 -33.074,-1.373 c 0.353,-5.065 1.576,-10.069 3.654,-14.786 z m 90.017,11.187 c 0.132,0.86 0.386,1.605 0.276,0.772 0.694,5.726 0.407,11.623 -0.982,17.488 l -3.031,-0.91 c 1.273,-5.528 1.544,-11.237 0.805,-16.848 l 2.932,-0.502 z m -6.382,16.546 -32.82,-9.894 33.553,-5.692 c 0.672,5.191 0.424,10.477 -0.733,15.586 z m -93.136,-10.351 2.981,0.254 c -0.033,5.484 0.893,10.978 2.772,16.214 l -2.706,1.075 c -0.055,-0.088 -0.11,-0.177 -0.165,-0.253 -1.945,-5.484 -2.954,-11.326 -2.882,-17.29 z m 5.737,0.485 33.316,2.778 -30.732,12.186 c -1.73,-4.839 -2.59,-9.904 -2.584,-14.964 z m 53.757,4.371 32.865,8.426 c -1.472,4.917 -3.82,9.618 -7.027,13.861 L 89.395,756.56 z m -18.512,2.447 -23.12,23.638 c -0.044,-0.044 -0.089,-0.088 -0.133,-0.132 -3.549,-3.781 -6.304,-8.019 -8.272,-12.511 l 31.525,-10.995 z m 15.982,1.262 26.455,20.948 c -0.981,1.125 -2.028,2.21 -3.135,3.258 -2.745,2.574 -5.733,4.728 -8.874,6.47 L 86.865,760.269 z m -12.576,1.664 -11.547,31.09 c -4.607,-1.935 -8.939,-4.674 -12.797,-8.217 l 24.344,-22.873 z m 8.763,0.711 15.542,29.69 c -4.724,2.199 -9.75,3.522 -14.831,3.963 l -0.711,-33.653 z m -4.458,0.541 2.104,33.272 c -5.103,0.093 -10.217,-0.695 -15.089,-2.349 l 12.985,-30.923 z m 46.344,2.491 2.926,0.749 c -0.049,0.286 -0.093,0.573 -0.115,0.86 -1.797,5.732 -4.541,10.924 -8.013,15.448 l -2.403,-2.067 c 3.488,-4.585 6.023,-9.672 7.605,-14.99 z m -79.325,18.727 c 0.072,0.078 0.143,0.149 0.209,0.22 l -2.072,2.122 c -0.093,-0.071 -0.176,-0.126 -0.27,-0.187 -4.034,-4.304 -7.269,-9.276 -9.561,-14.66 l 2.815,-0.986 c 2.1,4.849 5.054,9.418 8.879,13.491 z m 69.873,-1.471 2.381,1.89 c -0.138,0.204 -0.265,0.424 -0.38,0.645 -3.903,4.392 -8.543,8.057 -13.652,10.83 l -1.344,-2.844 c 3.4,-1.868 6.624,-4.184 9.584,-6.961 1.212,-1.141 2.347,-2.331 3.411,-3.56 z m -53.702,12.682 -1.059,2.843 c -0.071,-0.016 -0.143,-0.028 -0.214,-0.039 -5.589,-2.353 -10.566,-5.638 -14.804,-9.628 l 2.221,-2.083 c 4.161,3.858 8.857,6.829 13.856,8.907 z m 38.088,-0.833 1.428,2.723 c -0.088,0.061 -0.171,0.127 -0.248,0.193 -5.368,2.485 -11.183,4.039 -17.167,4.513 l -0.067,-3.152 c 5.5,-0.452 10.946,-1.879 16.054,-4.277 z m -18.997,4.431 0.198,3.075 c -0.099,0.023 -0.198,0.045 -0.286,0.072 -4.839,0.077 -9.772,-0.545 -14.655,-1.951 -0.948,-0.281 -1.879,-0.573 -2.794,-0.898 l 1.196,-2.855 c 5.274,1.813 10.813,2.673 16.341,2.557 z"
           stroke-miterlimit="79.8403193612775"
           id="path4803"
           inkscape:connector-curvature="0"
           style="fill:#000000;fill-rule:evenodd;stroke:none;stroke-width:2.75600004;marker-start:none;marker-end:none" />
      </g>
    </g>
  </g>
  <path
     style="fill:#ffffff;fill-opacity:1;fill-rule:nonzero;stroke:#c8beb7;stroke-width:0.73822147;stroke-miterlimit:4;stroke-opacity:1;stroke-dasharray:none"
     d="m 132.55112,97.439808 c 0.0209,-8.858484 0.60969,-32.890538 0.81054,-33.086062 0.22569,-0.2197 6.11675,0.791455 9.01712,1.547718 2.94877,0.768881 8.67105,2.911716 8.67105,3.247065 0,0.238125 -14.96432,28.948859 -17.21084,33.020941 l -1.30465,2.36483 0.0168,-7.094492 0,0 z"
     id="path4847"
     inkscape:connector-curvature="0"
     transform="matrix(0.80000008,0,0,0.80000008,0,-10e-6)" />
  <path
     style="fill:#ffffff;fill-opacity:1;fill-rule:nonzero;stroke:#c8beb7;stroke-width:0.73822147;stroke-miterlimit:4;stroke-opacity:1;stroke-dasharray:none"
     d="m 138.04326,107.3313 c 0,-0.4146 16.59135,-35.505803 16.96445,-35.880314 0.59588,-0.59815 6.89851,3.928216 10.93065,7.850088 l 3.65558,3.555609 -15.45173,12.218294 C 138.92838,107.10515 138.04326,107.779 138.04326,107.3313 z"
     id="path4849"
     inkscape:connector-curvature="0"
     transform="matrix(0.80000008,0,0,0.80000008,0,-10e-6)" />
  <path
     style="fill:#ffffff;fill-opacity:1;fill-rule:nonzero;stroke:#c8beb7;stroke-width:0.73822147;stroke-miterlimit:4;stroke-opacity:1;stroke-dasharray:none"
     d="m 141.5905,112.8737 c 0,-0.12041 6.42939,-5.7517 14.28753,-12.51399 7.85813,-6.762295 14.76414,-12.735602 15.34668,-13.274021 l 1.05916,-0.978942 2.02741,3.10463 c 2.22492,3.407101 4.14826,7.231468 5.62915,11.193053 l 0.96088,2.57048 -19.16273,4.8893 c -10.5395,2.68912 -19.38443,4.9656 -19.6554,5.05886 -0.27097,0.0932 -0.49268,0.071 -0.49268,-0.0494 z"
     id="path4851"
     inkscape:connector-curvature="0"
     transform="matrix(0.80000008,0,0,0.80000008,0,-10e-6)" />
  <path
     style="fill:#ffffff;fill-opacity:1;fill-rule:nonzero;stroke:#c8beb7;stroke-width:0.73822147;stroke-miterlimit:4;stroke-opacity:1;stroke-dasharray:none"
     d="m 176.2747,124.97784 c -2.92648,-0.52811 -11.83546,-2.06421 -19.79773,-3.41357 l -14.47685,-2.45338 19.60066,-5.87372 c 10.78035,-3.23054 19.76306,-5.88951 19.96156,-5.90881 0.92753,-0.0902 1.96624,9.56591 1.59673,14.84364 -0.22511,3.21523 -0.37475,3.83658 -0.91628,3.80444 -0.35597,-0.0211 -3.04162,-0.4705 -5.96809,-0.9986 z"
     id="path4853"
     inkscape:connector-curvature="0"
     transform="matrix(0.80000008,0,0,0.80000008,0,-10e-6)" />
  <path
     style="fill:#ffffff;fill-opacity:1;fill-rule:nonzero;stroke:#c8beb7;stroke-width:0.73822147;stroke-miterlimit:4;stroke-opacity:1;stroke-dasharray:none"
     d="m 158.02156,136.45627 c -12.69477,-8.44858 -16.59921,-11.22615 -15.76554,-11.2154 0.60946,0.008 9.79886,1.12347 20.4209,2.47913 l 19.31278,2.46483 -0.13595,0.96958 c -0.46845,3.341 -5.83287,16.54669 -6.71676,16.53481 -0.13298,-0.002 -7.83492,-5.05661 -17.11543,-11.23295 l 0,0 z"
     id="path4855"
     inkscape:connector-curvature="0"
     transform="matrix(0.80000008,0,0,0.80000008,0,-10e-6)" />
  <path
     style="fill:#ffffff;fill-opacity:1;fill-rule:nonzero;stroke:#c8beb7;stroke-width:0.73822147;stroke-miterlimit:4;stroke-opacity:1;stroke-dasharray:none"
     d="m 148.36263,147.60394 c -5.90885,-9.32853 -10.67061,-17.0337 -10.5817,-17.12261 0.0889,-0.0889 7.97725,4.576 17.52966,10.36648 l 17.36801,10.52813 -1.23736,1.723 c -1.52621,2.12521 -8.14928,8.53805 -10.5579,10.22277 l -1.77736,1.24319 -10.74335,-16.96096 z"
     id="path4857"
     inkscape:connector-curvature="0"
     transform="matrix(0.80000008,0,0,0.80000008,0,-10e-6)" />
  <path
     style="fill:#ffffff;fill-opacity:1;fill-rule:nonzero;stroke:#c8beb7;stroke-width:0.73822147;stroke-miterlimit:4;stroke-opacity:1;stroke-dasharray:none"
     d="m 147.68246,170.04696 c -1.59684,-4.26508 -9.58086,-27.66801 -9.47514,-27.77373 0.1286,-0.1286 16.79185,23.63159 17.10599,24.39149 0.12368,0.29917 -3.0634,2.03208 -5.95588,3.2384 -1.13224,0.4722 -1.53895,0.50713 -1.67497,0.14384 z"
     id="path4859"
     inkscape:connector-curvature="0"
     transform="matrix(0.80000008,0,0,0.80000008,0,-10e-6)" />
  <path
     style="fill:#ffffff;fill-opacity:1;fill-rule:nonzero;stroke:#c8beb7;stroke-width:0.73822147;stroke-miterlimit:4;stroke-opacity:1;stroke-dasharray:none"
     d="m 137.64912,173.01061 c 0,-0.16547 -1.06417,-7.5239 -2.36483,-16.35206 -1.30066,-8.82817 -2.35678,-16.27502 -2.34695,-16.54856 0.01,-0.27355 2.48972,6.59714 5.51085,15.26818 3.02113,8.67105 5.41955,15.97029 5.32982,16.22052 -0.0897,0.25024 -1.40743,0.73799 -2.92822,1.08388 -3.19078,0.72573 -3.20067,0.72675 -3.20067,0.32804 z"
     id="path4861"
     inkscape:connector-curvature="0"
     transform="matrix(0.80000008,0,0,0.80000008,0,-10e-6)" />
  <path
     style="fill:#ffffff;fill-opacity:1;fill-rule:nonzero;stroke:#c8beb7;stroke-width:0.73822147;stroke-miterlimit:4;stroke-opacity:1;stroke-dasharray:none"
     d="m 122.27772,173.88846 c -0.32517,-0.0659 -1.94612,-0.33311 -3.60212,-0.59377 -1.65599,-0.26066 -3.20219,-0.59215 -3.436,-0.73665 -0.28193,-0.17424 1.41555,-6.82846 5.04001,-19.75717 3.79195,-13.52615 5.53675,-19.19279 5.69912,-18.50911 0.12871,0.54194 1.83077,9.41006 3.78237,19.70693 1.95159,10.29687 3.62136,19.03196 3.71059,19.41132 0.14885,0.63281 -0.28207,0.68597 -5.22026,0.64402 -2.96038,-0.0251 -5.64855,-0.0997 -5.97371,-0.16557 z"
     id="path4863"
     inkscape:connector-curvature="0"
     transform="matrix(0.80000008,0,0,0.80000008,0,-10e-6)" />
  <path
     style="fill:#ffffff;fill-opacity:1;fill-rule:nonzero;stroke:#c8beb7;stroke-width:0.73822147;stroke-miterlimit:4;stroke-opacity:1;stroke-dasharray:none"
     d=""
     id="path4865"
     inkscape:connector-curvature="0"
     transform="matrix(0.80000008,0,0,0.80000008,0,-10e-6)" />
  <path
     style="fill:#ffffff;fill-opacity:1;fill-rule:nonzero;stroke:#c8beb7;stroke-width:0.73822147;stroke-miterlimit:4;stroke-opacity:1;stroke-dasharray:none"
     d="m 102.68256,167.81103 c -1.99613,-1.05435 -4.703296,-2.67036 -6.01593,-3.59112 -2.127347,-1.49225 -2.332335,-1.75175 -1.887006,-2.3888 1.060371,-1.51687 24.942956,-30.19245 25.061076,-30.09057 0.0687,0.0592 -0.34658,2.12073 -0.92281,4.58111 -0.69832,2.98166 -2.89779,9.20496 -6.59577,18.66238 -3.05145,7.80395 -5.65207,14.31387 -5.77917,14.4665 -0.12709,0.15264 -1.86427,-0.58514 -3.86039,-1.6395 z"
     id="path4867"
     inkscape:connector-curvature="0"
     transform="matrix(0.80000008,0,0,0.80000008,0,-10e-6)" />
  <path
     style="fill:#ffffff;fill-opacity:1;fill-rule:nonzero;stroke:#c8beb7;stroke-width:0.73822147;stroke-miterlimit:4;stroke-opacity:1;stroke-dasharray:none"
     d="m 88.184733,156.86634 c -3.16293,-3.46389 -5.504307,-6.51396 -7.130838,-9.28921 -0.738727,-1.26045 -1.343141,-2.38425 -1.343141,-2.49733 0,-0.27484 35.101076,-17.59703 35.285096,-17.413 0.19217,0.19216 -23.709039,31.61254 -24.122907,31.71181 -0.177858,0.0427 -1.387553,-1.08785 -2.68821,-2.51227 z"
     id="path4869"
     inkscape:connector-curvature="0"
     transform="matrix(0.80000008,0,0,0.80000008,0,-10e-6)" />
  <path
     style="fill:#ffffff;fill-opacity:1;fill-rule:nonzero;stroke:#c8beb7;stroke-width:0.73822147;stroke-miterlimit:4;stroke-opacity:1;stroke-dasharray:none"
     d="m 76.022653,136.5751 c -1.510262,-4.62263 -2.618115,-9.67632 -2.618115,-11.94303 l 0,-1.31345 2.463365,-0.21912 c 3.755161,-0.33403 35.502127,-1.53187 36.242067,-1.36744 0.51987,0.11553 -31.722278,18.18107 -34.008829,19.05543 -0.502234,0.19205 -0.908542,-0.6314 -2.078488,-4.21239 z"
     id="path4871"
     inkscape:connector-curvature="0"
     transform="matrix(0.80000008,0,0,0.80000008,0,-10e-6)" />
  <path
     style="fill:#ffffff;fill-opacity:1;fill-rule:nonzero;stroke:#c8beb7;stroke-width:0.73822147;stroke-miterlimit:4;stroke-opacity:1;stroke-dasharray:none"
     d="m 73.018094,117.65584 c 0.02288,-3.85795 2.07098,-14.73325 3.083047,-16.37081 0.212772,-0.34427 5.240925,1.4798 18.013532,6.5348 9.745107,3.85681 18.073097,7.16226 18.506647,7.34545 0.50278,0.21244 -5.49272,0.86558 -16.553817,1.80334 -9.538152,0.80865 -18.627972,1.586 -20.1996,1.72744 l -2.857504,0.25717 0.0077,-1.29739 0,0 z"
     id="path4873"
     inkscape:connector-curvature="0"
     transform="matrix(0.80000008,0,0,0.80000008,0,-10e-6)" />
  <path
     style="fill:#ffffff;fill-opacity:1;fill-rule:nonzero;stroke:#c8beb7;stroke-width:0.73822147;stroke-miterlimit:4;stroke-opacity:1;stroke-dasharray:none"
     d="m 96.375163,103.25337 -18.61099,-6.527817 1.639884,-3.152066 c 1.677873,-3.225083 5.014073,-8.104603 7.30448,-10.683516 l 1.282774,-1.444357 10.345072,10.558998 c 14.887427,15.195288 17.428217,17.855058 17.016697,17.813568 -0.20181,-0.0203 -8.74187,-2.97452 -18.977917,-6.56481 z"
     id="path4875"
     inkscape:connector-curvature="0"
     transform="matrix(0.80000008,0,0,0.80000008,0,-10e-6)" />
  <path
     style="fill:#ffffff;fill-opacity:1;fill-rule:nonzero;stroke:#c8beb7;stroke-width:0.73822147;stroke-miterlimit:4;stroke-opacity:1;stroke-dasharray:none"
     d="M 105.58848,92.032085 91.156061,78.521159 93.020575,76.834278 c 3.565439,-3.225758 12.878335,-8.752276 13.561535,-8.047775 0.37292,0.384542 13.74365,36.451647 13.57559,36.619707 -0.0752,0.0752 -6.63139,-5.943116 -14.56922,-13.374125 z"
     id="path4877"
     inkscape:connector-curvature="0"
     transform="matrix(0.80000008,0,0,0.80000008,0,-10e-6)" />
  <path
     style="fill:#ffffff;fill-opacity:1;fill-rule:nonzero;stroke:#c8beb7;stroke-width:0.73822147;stroke-miterlimit:4;stroke-opacity:1;stroke-dasharray:none"
     d="m 118.58429,85.864306 c -4.37255,-10.415273 -7.67651,-18.791372 -7.48614,-18.978629 1.04117,-1.024158 10.39385,-2.730145 15.03658,-2.742768 l 2.87166,-0.0078 -0.25115,3.448712 c -0.13813,1.896792 -0.72205,10.980636 -1.2976,20.186321 l -1.04645,16.737618 -7.8269,-18.643447 z"
     id="path4879"
     inkscape:connector-curvature="0"
     transform="matrix(0.80000008,0,0,0.80000008,0,-10e-6)" />
  <path
     style="fill:#ffffff;fill-opacity:1;fill-rule:nonzero;stroke:#c8beb7;stroke-width:0.73822147;stroke-miterlimit:4;stroke-opacity:1;stroke-dasharray:none"
     d="m 149.52292,64.247408 c -3.88667,-1.610091 -9.74001,-3.123937 -13.51838,-3.496247 l -2.69094,-0.265159 0,-1.773624 0,-1.773623 2.7517,0.271145 c 3.80562,0.374997 9.95744,1.916978 14.22833,3.566398 1.97123,0.761292 3.7446,1.483387 3.94082,1.604657 0.29102,0.179858 -1.02152,3.442341 -1.32047,3.282215 -0.0498,-0.02667 -1.57577,-0.66376 -3.39106,-1.415762 z"
     id="path4881"
     inkscape:connector-curvature="0"
     transform="matrix(0.80000008,0,0,0.80000008,0,-10e-6)" />
  <path
     style="fill:#ffffff;fill-opacity:1;fill-rule:nonzero;stroke:#c8beb7;stroke-width:0.73822147;stroke-miterlimit:4;stroke-opacity:1;stroke-dasharray:none"
     d="m 169.69544,77.357458 c -2.79821,-2.90929 -7.70132,-6.800938 -11.01583,-8.743374 -0.94474,-0.553651 -1.7177,-1.175956 -1.7177,-1.382898 0,-0.474646 1.14061,-2.701945 1.38368,-2.701945 0.38086,0 4.44927,2.605172 7.0903,4.540209 3.30265,2.419802 9.65639,8.358988 9.65639,9.026354 0,0.386032 -2.02179,2.198978 -2.45229,2.198978 -0.0657,0 -1.39071,-1.321796 -2.94455,-2.937324 z"
     id="path4883"
     inkscape:connector-curvature="0"
     transform="matrix(0.80000008,0,0,0.80000008,0,-10e-6)" />
  <path
     style="fill:#ffffff;fill-opacity:1;fill-rule:nonzero;stroke:#c8beb7;stroke-width:0.73822147;stroke-miterlimit:4;stroke-opacity:1;stroke-dasharray:none"
     d="m 183.39873,98.528205 c -1.50203,-4.015257 -4.50278,-9.837431 -6.51069,-12.632299 -0.77089,-1.073023 -1.40162,-2.071298 -1.40162,-2.218389 0,-0.307013 2.04735,-2.169101 2.40554,-2.187864 0.35508,-0.0186 3.55077,4.896094 5.37381,8.264454 1.72854,3.193763 4.43894,9.765348 4.43894,10.762583 0,0.33787 -0.39906,0.72902 -0.88681,0.86922 -0.48774,0.14019 -1.16594,0.33154 -1.5071,0.42521 -0.46857,0.12866 -0.93623,-0.67428 -1.91207,-3.282915 l 0,0 z"
     id="path4885"
     inkscape:connector-curvature="0"
     transform="matrix(0.80000008,0,0,0.80000008,0,-10e-6)" />
  <path
     style="fill:#ffffff;fill-opacity:1;fill-rule:nonzero;stroke:#c8beb7;stroke-width:0.73822147;stroke-miterlimit:4;stroke-opacity:1;stroke-dasharray:none"
     d="m 187.70471,126.92483 -0.98534,-0.15434 0.13505,-6.15318 c 0.11705,-5.33317 -0.18514,-9.45389 -0.99497,-13.56754 -0.17422,-0.88494 -0.0209,-1.0953 1.07695,-1.47802 0.70405,-0.24543 1.48356,-0.44624 1.73225,-0.44624 0.24986,0 0.68907,1.27848 0.98166,2.8575 0.59311,3.20087 1.04372,15.69508 0.64306,17.83076 -0.26642,1.42015 -0.35968,1.46018 -2.58866,1.11106 z"
     id="path4887"
     inkscape:connector-curvature="0"
     transform="matrix(0.80000008,0,0,0.80000008,0,-10e-6)" />
  <path
     style="fill:#ffffff;fill-opacity:1;fill-rule:nonzero;stroke:#c8beb7;stroke-width:0.73822147;stroke-miterlimit:4;stroke-opacity:1;stroke-dasharray:none"
     d="m 179.8146,150.97872 c -0.5379,-0.36302 -1.0465,-0.71343 -1.13021,-0.77871 -0.0837,-0.0653 0.8393,-2.11941 2.05115,-4.56475 2.28296,-4.60669 4.36781,-10.30904 4.83182,-13.21566 0.28289,-1.77203 0.7231,-1.99023 2.86069,-1.41788 0.81801,0.21902 0.89107,0.40478 0.65671,1.66971 -0.88713,4.78819 -6.61306,18.4648 -7.89067,18.84717 -0.22082,0.0661 -0.84159,-0.17686 -1.37949,-0.53988 z"
     id="path4889"
     inkscape:connector-curvature="0"
     transform="matrix(0.80000008,0,0,0.80000008,0,-10e-6)" />
  <path
     style="fill:#ffffff;fill-opacity:1;fill-rule:nonzero;stroke:#c8beb7;stroke-width:0.73822147;stroke-miterlimit:4;stroke-opacity:1;stroke-dasharray:none"
     d="m 162.39313,169.658 c -0.3088,-0.48351 -0.68145,-1.08356 -0.82812,-1.33343 -0.16024,-0.27298 0.71632,-1.18299 2.19624,-2.28004 3.01487,-2.23489 8.94008,-8.02794 10.80892,-10.56782 0.75764,-1.02969 1.47451,-1.87216 1.59304,-1.87216 0.11853,0 0.81315,0.36936 1.54359,0.8208 l 1.32807,0.82079 -1.87276,2.3877 c -3.40509,4.34136 -10.54663,11.00342 -13.36102,12.46397 -0.7139,0.37048 -0.93449,0.30157 -1.40796,-0.43981 z"
     id="path4891"
     inkscape:connector-curvature="0"
     transform="matrix(0.80000008,0,0,0.80000008,0,-10e-6)" />
  <path
     style="fill:#ffffff;fill-opacity:1;fill-rule:nonzero;stroke:#c8beb7;stroke-width:0.73822147;stroke-miterlimit:4;stroke-opacity:1;stroke-dasharray:none"
     d="m 149.67046,175.81286 c -0.33092,-0.792 -0.555,-1.47423 -0.49796,-1.51606 0.057,-0.0418 1.99804,-0.97332 4.31334,-2.06998 3.84917,-1.82318 4.25566,-1.93805 4.74724,-1.34144 1.65353,2.0068 1.65788,1.92735 -0.15806,2.88329 -1.85825,0.97822 -7.34398,3.48419 -7.6271,3.48419 -0.0967,0 -0.44654,-0.648 -0.77746,-1.44 z"
     id="path4893"
     inkscape:connector-curvature="0"
     transform="matrix(0.80000008,0,0,0.80000008,0,-10e-6)" />
  <path
     style="fill:#ffffff;fill-opacity:1;fill-rule:nonzero;stroke:#c8beb7;stroke-width:0.73822147;stroke-miterlimit:4;stroke-opacity:1;stroke-dasharray:none"
     d="m 138.59364,179.39828 c -0.46975,-1.87164 -0.10893,-2.19422 3.45313,-3.08721 l 3.41231,-0.85545 0.43054,1.43702 c 0.2368,0.79036 0.43055,1.53036 0.43055,1.64444 0,0.20379 -4.27175,1.26634 -6.41068,1.59459 -0.87739,0.13465 -1.13386,-0.008 -1.31585,-0.73339 z"
     id="path4895"
     inkscape:connector-curvature="0"
     transform="matrix(0.80000008,0,0,0.80000008,0,-10e-6)" />
  <path
     style="fill:#ffffff;fill-opacity:1;fill-rule:nonzero;stroke:#c8beb7;stroke-width:0.73822147;stroke-miterlimit:4;stroke-opacity:1;stroke-dasharray:none"
     d="m 124.83962,181.1402 c -4.9613,-0.24315 -8.1147,-0.6989 -10.70714,-1.54746 -1.16533,-0.38145 -1.22475,-0.48883 -0.89897,-1.62476 0.19186,-0.66897 0.43183,-1.29931 0.53327,-1.40075 0.10144,-0.10144 1.92488,0.14428 4.05208,0.54603 2.76645,0.52249 5.69121,0.73052 10.2724,0.73064 6.14014,1.6e-4 6.40497,0.0327 6.41013,0.78845 0.003,0.43355 0.10818,1.17147 0.23382,1.63983 0.21406,0.79794 0.071,0.85998 -2.27168,0.98534 -1.37506,0.0736 -4.80582,0.0208 -7.62391,-0.11732 z"
     id="path4897"
     inkscape:connector-curvature="0"
     transform="matrix(0.80000008,0,0,0.80000008,0,-10e-6)" />
  <path
     style="fill:#ffffff;fill-opacity:1;fill-rule:nonzero;stroke:#c8beb7;stroke-width:0.73822147;stroke-miterlimit:4;stroke-opacity:1;stroke-dasharray:none"
     d="m 107.69459,177.70582 c 0,-0.9982 0.94752,-2.81779 1.46731,-2.81779 0.46394,0 0.54545,0.28234 0.35558,1.23168 -0.13548,0.67743 -0.24634,1.38688 -0.24634,1.57656 0,0.18968 -0.35472,0.34487 -0.78827,0.34487 -0.43356,0 -0.78828,-0.1509 -0.78828,-0.33532 z"
     id="path4899"
     inkscape:connector-curvature="0"
     transform="matrix(0.80000008,0,0,0.80000008,0,-10e-6)" />
  <path
     style="fill:#ffffff;fill-opacity:1;fill-rule:nonzero;stroke:#c8beb7;stroke-width:0.73822147;stroke-miterlimit:4;stroke-opacity:1;stroke-dasharray:none"
     d="m 99.633853,174.31793 c -3.085258,-1.61384 -6.503306,-3.8035 -8.851006,-5.6701 l -0.949133,-0.75463 0.857076,-1.20365 0.857077,-1.20366 3.821688,2.55515 c 2.101929,1.40532 5.114175,3.16847 6.693875,3.91811 1.57971,0.74963 2.87219,1.42279 2.87219,1.4959 0,0.7801 -0.98831,2.6154 -1.4084,2.6154 -0.29865,0 -2.05067,-0.78863 -3.893367,-1.75252 z"
     id="path4901"
     inkscape:connector-curvature="0"
     transform="matrix(0.80000008,0,0,0.80000008,0,-10e-6)" />
  <path
     style="fill:#ffffff;fill-opacity:1;fill-rule:nonzero;stroke:#c8beb7;stroke-width:0.73822147;stroke-miterlimit:4;stroke-opacity:1;stroke-dasharray:none"
     d="m 83.193992,161.94929 c -3.539524,-3.72443 -7.793003,-9.48304 -9.002011,-12.18746 l -0.748789,-1.67497 1.143515,-0.59133 c 0.628934,-0.32523 1.220276,-0.59134 1.314093,-0.59134 0.09382,0 0.81353,1.07934 1.599363,2.39852 1.956841,3.28496 5.234054,7.58153 8.349219,10.9462 l 2.604272,2.81285 -0.986747,1.17268 -0.986747,1.17268 -3.286168,-3.45783 z"
     id="path4903"
     inkscape:connector-curvature="0"
     transform="matrix(0.80000008,0,0,0.80000008,0,-10e-6)" />
  <path
     style="fill:#ffffff;fill-opacity:1;fill-rule:nonzero;stroke:#c8beb7;stroke-width:0.73822147;stroke-miterlimit:4;stroke-opacity:1;stroke-dasharray:none"
     d="m 71.103117,143.85463 c -0.700669,-1.33798 -2.418999,-6.43929 -3.201965,-9.50586 -0.895747,-3.5083 -1.98617,-10.35115 -1.72057,-10.79728 0.09679,-0.16259 0.846534,-0.29561 1.666096,-0.29561 l 1.490112,0 0.44946,3.64578 c 0.516857,4.19248 1.569197,8.43746 3.19819,12.901 1.197459,3.28112 1.188103,3.34321 -0.647235,4.29528 -0.720955,0.37399 -0.932683,0.33225 -1.234088,-0.24331 l 0,0 z"
     id="path4905"
     inkscape:connector-curvature="0"
     transform="matrix(0.80000008,0,0,0.80000008,0,-10e-6)" />
  <path
     style="fill:#ffffff;fill-opacity:1;fill-rule:nonzero;stroke:#c8beb7;stroke-width:0.73822147;stroke-miterlimit:4;stroke-opacity:1;stroke-dasharray:none"
     d="m 65.915905,117.17525 c 0,-4.15313 1.180475,-11.05576 2.817398,-16.47426 l 0.800833,-2.650894 1.422283,0.594268 c 0.782255,0.326847 1.477627,0.649612 1.54527,0.717256 0.06764,0.06764 -0.153596,0.90444 -0.491642,1.85956 -1.000693,2.82734 -2.089272,8.21086 -2.343577,11.59003 -0.504333,6.70155 -0.43732,6.50329 -2.198161,6.50329 l -1.552404,0 0,-2.13925 z"
     id="path4907"
     inkscape:connector-curvature="0"
     transform="matrix(0.80000008,0,0,0.80000008,0,-10e-6)" />
  <path
     style="fill:#ffffff;fill-opacity:1;fill-rule:nonzero;stroke:#c8beb7;stroke-width:0.73822147;stroke-miterlimit:4;stroke-opacity:1;stroke-dasharray:none"
     d="m 72.120123,94.761596 -1.087345,-0.474896 1.12597,-2.364831 c 2.100339,-4.411261 6.326789,-10.717499 9.747175,-14.543651 l 1.021731,-1.14294 1.154862,1.154863 1.154863,1.154862 -2.003641,2.352909 c -2.612886,3.068356 -5.835528,7.936652 -7.623606,11.51663 -0.784975,1.571628 -1.646701,2.849505 -1.914946,2.839727 -0.268245,-0.0098 -0.977023,-0.23148 -1.575063,-0.492673 l 0,0 z"
     id="path4909"
     inkscape:connector-curvature="0"
     transform="matrix(0.80000008,0,0,0.80000008,0,-10e-6)" />
  <path
     style="fill:#ffffff;fill-opacity:1;fill-rule:nonzero;stroke:#c8beb7;stroke-width:0.73822147;stroke-miterlimit:4;stroke-opacity:1;stroke-dasharray:none"
     d="m 86.991909,74.43467 -1.185802,-1.059514 2.371728,-2.013188 c 4.53692,-3.851061 14.524225,-9.876388 15.713535,-9.479952 0.2193,0.0731 0.60278,0.738934 0.85217,1.479629 l 0.45344,1.346718 -3.66735,1.839291 c -4.023026,2.017672 -7.549934,4.294478 -10.585928,6.833776 -2.706174,2.263438 -2.62235,2.241097 -3.951793,1.05324 z"
     id="path4911"
     inkscape:connector-curvature="0"
     transform="matrix(0.80000008,0,0,0.80000008,0,-10e-6)" />
  <path
     style="fill:#ffffff;fill-opacity:1;fill-rule:nonzero;stroke:#c8beb7;stroke-width:0.73822147;stroke-miterlimit:4;stroke-opacity:1;stroke-dasharray:none"
     d="m 108.40593,61.751496 -0.66815,-1.593712 1.06229,-0.405772 c 3.86378,-1.475888 13.41968,-3.095336 18.30584,-3.102308 l 2.2663,-0.0032 0,1.773623 0,1.773624 -2.47371,0 c -4.49025,0 -13.88257,1.58996 -17.23322,2.91729 -0.41799,0.165584 -0.78696,-0.232728 -1.25935,-1.359511 z"
     id="path4913"
     inkscape:connector-curvature="0"
     transform="matrix(0.80000008,0,0,0.80000008,0,-10e-6)" />
  <path
     style="fill:#ffffff;fill-opacity:1;fill-rule:nonzero;stroke:#c8beb7;stroke-width:0.73822147;stroke-miterlimit:4;stroke-opacity:1;stroke-dasharray:none"
     d="m 99.198228,199.02902 c 0.142462,-0.37936 1.172002,-3.0522 2.287862,-5.93965 l 2.02884,-5.24991 0.54894,1.89973 c 1.13208,3.91786 4.00732,6.14747 7.96624,6.17746 5.23102,0.0396 9.61613,-5.12757 8.32374,-9.80826 l -0.40662,-1.47263 2.05206,0.24651 c 1.12863,0.13558 4.14217,0.24805 6.69675,0.24994 l 4.64471,0.003 -0.24968,1.88216 c -0.68536,5.1665 3.1163,9.53055 8.30237,9.53055 3.81828,0 7.06936,-2.48278 8.10781,-6.19175 l 0.5011,-1.78977 1.88442,5.47744 c 1.03643,3.01259 1.89288,5.52177 1.90322,5.57596 0.0104,0.0542 -12.32685,0.0985 -27.41599,0.0985 -25.96429,0 -27.420911,-0.037 -27.175772,-0.68974 z"
     id="path4915"
     inkscape:connector-curvature="0"
     transform="matrix(0.80000008,0,0,0.80000008,0,-10e-6)" />
  <path
     style="fill:#ffffff;fill-opacity:1;fill-rule:nonzero;stroke:#c8beb7;stroke-width:0.09227768;stroke-miterlimit:4;stroke-opacity:1;stroke-dasharray:none"
     d="m 148.48819,184.03197 c -0.24824,-0.40413 -0.66709,-0.94455 -1.02011,-1.31619 -0.18808,-0.198 -0.32435,-0.37062 -0.30281,-0.3836 0.11599,-0.0699 0.7268,-0.22785 0.75576,-0.19543 0.0459,0.0513 0.74685,2.089 0.72585,2.10999 -0.009,0.009 -0.0805,-0.0875 -0.15869,-0.21477 z"
     id="path4917"
     inkscape:connector-curvature="0"
     transform="matrix(0.80000008,0,0,0.80000008,0,-10e-6)" />
  <path
     style="fill:#ffffff;fill-opacity:1;fill-rule:nonzero;stroke:#c8beb7;stroke-width:0.09227768;stroke-miterlimit:4;stroke-opacity:1;stroke-dasharray:none"
     d="m 105.30873,182.8604 c 0.0102,-0.0294 0.16169,-0.42019 0.33672,-0.86847 l 0.31826,-0.81505 0.34962,0.12574 0.34963,0.12575 -0.3886,0.37126 c -0.21372,0.20419 -0.50162,0.51624 -0.63976,0.69345 -0.29441,0.37766 -0.35184,0.4424 -0.32587,0.36732 z"
     id="path4919"
     inkscape:connector-curvature="0"
     transform="matrix(0.80000008,0,0,0.80000008,0,-10e-6)" />
</svg>
