<?xml version="1.0" encoding="UTF-8" standalone="no"?>
<!--Generator: Xara Designer (www.xara.com), SVG filter version: 3.0.0.4-->

<svg
   xmlns:dc="http://purl.org/dc/elements/1.1/"
   xmlns:cc="http://creativecommons.org/ns#"
   xmlns:rdf="http://www.w3.org/1999/02/22-rdf-syntax-ns#"
   xmlns:svg="http://www.w3.org/2000/svg"
   xmlns="http://www.w3.org/2000/svg"
   xmlns:sodipodi="http://sodipodi.sourceforge.net/DTD/sodipodi-0.dtd"
   xmlns:inkscape="http://www.inkscape.org/namespaces/inkscape"
   version="1.1"
   overflow="visible"
   width="256"
   height="256"
   viewBox="0 0 204.80002 204.8"
   id="svg7059"
   inkscape:version="0.48.4 r9939"
   sodipodi:docname="prosperity.svg"
   style="fill-rule:evenodd;stroke-width:0.50099999;stroke-linejoin:bevel;overflow:visible"
   inkscape:export-filename="C:\Users\Bas des Bouvrie\workspace\DominionToolkit\res\drawable-ldpi\prosperity_icon.png"
   inkscape:export-xdpi="11.25"
   inkscape:export-ydpi="11.25">
  <metadata
     id="metadata7147">
    <rdf:RDF>
      <cc:Work
         rdf:about="">
        <dc:format>image/svg+xml</dc:format>
        <dc:type
           rdf:resource="http://purl.org/dc/dcmitype/StillImage" />
        <dc:title></dc:title>
      </cc:Work>
    </rdf:RDF>
  </metadata>
  <sodipodi:namedview
     pagecolor="#ffffff"
     bordercolor="#666666"
     borderopacity="1"
     objecttolerance="10"
     gridtolerance="10"
     guidetolerance="10"
     inkscape:pageopacity="0"
     inkscape:pageshadow="2"
     inkscape:window-width="1920"
     inkscape:window-height="1018"
     id="namedview7145"
     showgrid="false"
     inkscape:zoom="2.5371789"
     inkscape:cx="221.36577"
     inkscape:cy="101.03636"
     inkscape:window-x="-8"
     inkscape:window-y="-8"
     inkscape:window-maximized="1"
     inkscape:current-layer="svg7059" />
  <defs
     id="defs7061">
    <marker
       id="DefaultArrow2"
       markerUnits="strokeWidth"
       viewBox="0 0 1 1"
       markerWidth="1"
       markerHeight="1"
       overflow="visible"
       orient="auto"
       style="overflow:visible">
      <!-- REF_ARROW_STRAIGHT (-2) -->
      <g
         transform="scale(0.00925926,0.00925926)"
         id="g7064">
        <!-- 1/108 -->
        <path
           d="M -9,54 -9,-54 117,0 z"
           id="path7066"
           inkscape:connector-curvature="0" />
      </g>
    </marker>
    <marker
       id="DefaultArrow3"
       markerUnits="strokeWidth"
       viewBox="0 0 1 1"
       markerWidth="1"
       markerHeight="1"
       overflow="visible"
       orient="auto"
       style="overflow:visible">
      <!-- REF_ARROW_ANGLED -->
      <g
         transform="scale(0.00925926,0.00925926)"
         id="g7069">
        <path
           d="M -27,54 -9,0 -27,-54 135,0 z"
           id="path7071"
           inkscape:connector-curvature="0" />
      </g>
    </marker>
    <marker
       id="DefaultArrow4"
       markerUnits="strokeWidth"
       viewBox="0 0 1 1"
       markerWidth="1"
       markerHeight="1"
       overflow="visible"
       orient="auto"
       style="overflow:visible">
      <!-- REF_ARROW_ROUNDED -->
      <g
         transform="scale(0.00925926,0.00925926)"
         id="g7074">
        <path
           d="m -9,0 0,-45 c 0,-6.708 11.808,-11.58 18,-9 l 108,45 c 3.916,1.631 9,4.758 9,9 0,4.242 -5.084,7.369 -9,9 L 9,54 C 2.808,56.58 -9,51.708 -9,45 z"
           id="path7076"
           inkscape:connector-curvature="0" />
      </g>
    </marker>
    <marker
       id="DefaultArrow5"
       markerUnits="strokeWidth"
       viewBox="0 0 1 1"
       markerWidth="1"
       markerHeight="1"
       overflow="visible"
       orient="auto"
       style="overflow:visible">
      <!-- REF_ARROW_SPOT -->
      <g
         transform="scale(0.00925926,0.00925926)"
         id="g7079">
        <path
           d="M -54,0 C -54,29.807 -29.807,54 0,54 29.807,54 54,29.807 54,0 54,-29.807 29.807,-54 0,-54 -29.807,-54 -54,-29.807 -54,0 z"
           id="path7081"
           inkscape:connector-curvature="0" />
      </g>
    </marker>
    <marker
       id="DefaultArrow6"
       markerUnits="strokeWidth"
       viewBox="0 0 1 1"
       markerWidth="1"
       markerHeight="1"
       overflow="visible"
       orient="auto"
       style="overflow:visible">
      <!-- REF_ARROW_DIAMOND -->
      <g
         transform="scale(0.00925926,0.00925926)"
         id="g7084">
        <path
           d="M -63,0 0,63 63,0 0,-63 z"
           id="path7086"
           inkscape:connector-curvature="0" />
      </g>
    </marker>
    <marker
       id="DefaultArrow7"
       markerUnits="strokeWidth"
       viewBox="0 0 1 1"
       markerWidth="1"
       markerHeight="1"
       overflow="visible"
       orient="auto"
       style="overflow:visible">
      <!-- REF_ARROW_FEATHER -->
      <g
         transform="scale(0.00925926,0.00925926)"
         id="g7089">
        <path
           d="m 18,-54 90,0 L 63,0 108,54 18,54 -36,0 z"
           id="path7091"
           inkscape:connector-curvature="0" />
      </g>
    </marker>
    <marker
       id="DefaultArrow8"
       markerUnits="strokeWidth"
       viewBox="0 0 1 1"
       markerWidth="1"
       markerHeight="1"
       overflow="visible"
       orient="auto"
       style="overflow:visible">
      <!-- REF_ARROW_FEATHER2 -->
      <g
         transform="scale(0.00925926,0.00925926)"
         id="g7094">
        <path
           d="m -36,0 54,-54 36,0 -36,36 9,0 36,-36 36,0 -36,36 9,0 36,-36 36,0 -54,54 54,54 -36,0 -36,-36 -9,0 36,36 -36,0 -36,-36 -9,0 36,36 -36,0 z"
           id="path7096"
           inkscape:connector-curvature="0" />
      </g>
    </marker>
    <marker
       id="DefaultArrow9"
       markerUnits="strokeWidth"
       viewBox="0 0 1 1"
       markerWidth="1"
       markerHeight="1"
       overflow="visible"
       orient="auto"
       style="overflow:visible">
      <!-- REF_ARROW_HOLLOWDIAMOND -->
      <g
         transform="scale(0.00925926,0.00925926)"
         id="g7099">
        <path
           d="M 0,45 -45,0 0,-45 45,0 z M 0,63 -63,0 0,-63 63,0 z"
           id="path7101"
           inkscape:connector-curvature="0" />
      </g>
    </marker>
    <filter
       id="StainedFilter"
       color-interpolation-filters="sRGB">
      <feBlend
         mode="multiply"
         in2="BackgroundImage"
         in="SourceGraphic"
         result="blend"
         id="feBlend7104" />
      <feComposite
         in="blend"
         in2="SourceAlpha"
         operator="in"
         result="comp"
         id="feComposite7106" />
    </filter>
    <filter
       id="BleachFilter"
       color-interpolation-filters="sRGB">
      <feBlend
         mode="screen"
         in2="BackgroundImage"
         in="SourceGraphic"
         result="blend"
         id="feBlend7109" />
      <feComposite
         in="blend"
         in2="SourceAlpha"
         operator="in"
         result="comp"
         id="feComposite7111" />
    </filter>
    <filter
       id="InvertTransparencyBitmapFilter"
       color-interpolation-filters="sRGB">
      <feComponentTransfer
         id="feComponentTransfer7114">
        <feFuncR
           type="gamma"
           amplitude="1.055"
           exponent=".416666666"
           offset="-0.055"
           id="feFuncR7116" />
        <feFuncG
           type="gamma"
           amplitude="1.055"
           exponent=".416666666"
           offset="-0.055"
           id="feFuncG7118" />
        <feFuncB
           type="gamma"
           amplitude="1.055"
           exponent=".416666666"
           offset="-0.055"
           id="feFuncB7120" />
      </feComponentTransfer>
      <feComponentTransfer
         id="feComponentTransfer7122">
        <feFuncR
           type="linear"
           slope="-1"
           intercept="1"
           id="feFuncR7124" />
        <feFuncG
           type="linear"
           slope="-1"
           intercept="1"
           id="feFuncG7126" />
        <feFuncB
           type="linear"
           slope="-1"
           intercept="1"
           id="feFuncB7128" />
        <feFuncA
           type="linear"
           slope="1"
           intercept="0"
           id="feFuncA7130" />
      </feComponentTransfer>
      <feComponentTransfer
         id="feComponentTransfer7132">
        <feFuncR
           type="gamma"
           amplitude="1"
           exponent="2.4"
           offset="0"
           id="feFuncR7134" />
        <feFuncG
           type="gamma"
           amplitude="1"
           exponent="2.4"
           offset="0"
           id="feFuncG7136" />
        <feFuncB
           type="gamma"
           amplitude="1"
           exponent="2.4"
           offset="0"
           id="feFuncB7138" />
      </feComponentTransfer>
    </filter>
  </defs>
  <g
     id="Document"
     font-size="16"
     transform="matrix(1,0,0,-1,14.122091,5.5702406)"
     style="font-size:16px;fill:none;stroke:#000000;font-family:Times New Roman">
    <g
       id="Spread"
       transform="translate(0,-841.891)">
      <g
         id="Layer 1">
        <path
           d="m 95.82,675.338 -75.683,21.828 c -1.725,0.674 -2.01,1.604 -2.328,2.521 l 0.309,53.341 c -1.427,0.745 -1.348,4.208 0.034,6.155 3.58,2.763 8.416,7.348 11.243,6.909 0.188,-0.034 0.343,-0.097 0.477,-0.189 1.633,3.153 4.932,5.318 8.73,5.318 1.311,0 2.567,-0.264 3.714,-0.733 1.897,3.069 5.293,5.121 9.162,5.121 1.662,0 3.241,-0.381 4.652,-1.059 0.146,0.238 0.305,0.477 0.473,0.707 l -13.948,27.221 c -1.959,4.121 -1.561,5.624 -0.293,6.867 6.616,4.912 14.727,6.608 25.22,5.594 25.077,-3.94 49.735,-8.474 73.514,-14.236 11.055,-2.638 27.849,-21.338 11.683,-44.217 l 1.633,-1.382 0.125,-51.251 c -0.121,-1.691 -0.82,-2.948 -2.261,-3.643 -0.18,-0.758 -48.375,-23.193 -52.059,-25.106 -1.562,-0.289 -2.827,-0.314 -4.397,0.234 z m 0.235,6.44 -0.335,54.668 C 82.279,743.355 36.303,756.545 24.181,754.535 23.8,750.197 23.997,707.89 23.805,702.53 l 72.25,-20.752 z m 52.076,21.95 -0.574,45.569 c -16.368,-0.976 -32.099,-6.767 -47.612,-14.107 0.611,-12.905 -0.005,-38.375 0.075,-52.817 0,-0.013 0.008,-0.017 0.033,-0.013 1.462,0.113 48.074,21.912 48.078,21.368 z m -38.573,30.495 c 1.935,5.339 10.447,5.875 12.407,1.256 1.177,-2.772 2.353,-4.723 3.53,-6.595 2.123,-3.065 5.184,-2.043 4.87,2.119 -1.416,9.735 0.808,13.135 5.493,13.424 5.025,0.314 9.187,-4.476 7.303,-19.077 -1.336,-7.583 -7.851,-12.666 -15.782,-12.955 -11.695,2.278 -20.098,15.547 -17.821,21.828 z m 22.611,-17.038 c 5.418,1.805 8.952,9.97 7.617,17.666 -1.416,9.421 -7.144,5.494 -6.516,1.96 0.457,-3.585 0.578,-6.227 -0.079,-9.811 -1.884,-6.67 -9.028,-4.016 -10.912,-0.473 -4.711,9.107 -6.754,7.96 -7.851,7.302 -1.474,-1.172 -1.641,-3.006 -0.239,-5.418 6.989,-11.385 13.613,-12.679 17.98,-11.226 z m -62.917,0.892 -26.89,7.164 c -3.927,0.591 -1.964,7.265 0.591,5.892 l 4.61,-1.277 -0.097,11.875 c 0.155,1.817 1.127,2.91 3.631,2.65 l 10.598,-2.944 c 2.256,-0.586 2.256,-2.357 2.357,-5.79 l 0.293,-10.012 5.004,-1.373 c 3.534,0.393 4.321,-7.458 -0.097,-6.185 z m -13.445,11.486 0.097,7.654 -3.434,0.686 0,-7.557 3.337,-0.783 z m 50.598,15.161 c -0.217,0.628 -0.364,1.294 -0.431,1.981 -0.85,0.431 -1.813,0.678 -2.83,0.678 -2.919,0 -5.373,-2.005 -6.055,-4.71 0.775,-0.34 1.532,-0.674 2.274,-1.014 2.382,1.097 4.731,2.119 7.042,3.065 z m -6.238,5.285 c -1.093,1.808 -3.082,3.027 -5.348,3.027 -3.446,0 -6.243,-2.797 -6.243,-6.243 0,-0.247 0.013,-0.486 0.038,-0.725 1.918,-0.716 3.785,-1.44 5.582,-2.177 0.887,2.868 3.123,5.155 5.971,6.118 z m 20.261,-0.18 c -0.904,2.332 -3.174,3.994 -5.82,3.994 -3.446,0 -6.243,-2.797 -6.243,-6.243 l 0.113,-1.151 c 0.008,-0.109 0.05,-0.222 0.08,-0.327 0.037,-0.155 0.083,-0.306 0.134,-0.456 4.061,1.607 7.989,2.993 11.736,4.183 z m -30.947,3.676 c -1.261,2.068 -3.534,3.45 -6.126,3.45 -3.785,0 -6.884,-2.931 -7.16,-6.645 3.417,-1.076 6.791,-2.202 10.045,-3.371 0.042,2.651 1.298,5.017 3.241,6.566 z m 13.663,-3.011 c 0.1,0 0.201,-0.004 0.301,-0.008 1.595,1.131 2.642,2.994 2.642,5.1 0,3.446 -2.797,6.243 -6.243,6.243 -3.446,0 -6.243,-2.797 -6.243,-6.243 0,-0.101 0,-0.201 0.004,-0.302 0.398,0.059 0.8,0.088 1.214,0.088 3.409,0 6.361,-2.005 7.738,-4.899 0.193,0.013 0.39,0.021 0.587,0.021 z m -28.628,7.294 c 0,3.962 -3.216,7.177 -7.177,7.177 -3.961,0 -7.177,-3.215 -7.177,-7.177 0,-1.092 0.243,-2.127 0.678,-3.056 3.442,-0.905 6.955,-1.884 10.464,-2.927 1.935,1.29 3.212,3.488 3.212,5.983 z m -17.272,-2.009 c -0.046,-0.03 -0.093,-0.059 -0.139,-0.088 0.055,-0.013 0.109,-0.025 0.164,-0.038 -0.009,0.042 -0.021,0.084 -0.025,0.126 z m 37.186,6.858 c -0.967,1.231 -2.475,2.031 -4.166,2.031 -2.843,0 -5.167,-2.24 -5.305,-5.046 2.395,-0.393 4.509,-1.641 6.017,-3.421 0.18,2.617 1.494,4.925 3.454,6.436 z m -36.24,2.219 c 0,3.702 -3.011,6.712 -6.712,6.712 -3.702,0 -6.712,-3.01 -6.712,-6.712 0,-3.701 3.01,-6.712 6.712,-6.712 3.701,0 6.712,3.011 6.712,6.712 z m 20.35,-6.343 c 0.406,0.222 0.829,0.419 0.632,0.314 0.574,0.272 1.022,0.431 0.988,0.381 0.302,0.1 0.586,0.188 0.448,0.138 l 0.029,0.004 0.005,0.004 0.025,0.009 c 0.465,0.138 0.473,0.134 0,0 0.142,0.038 0.188,0.046 -0.013,-0.004 l -0.008,-0.005 c 0.427,0.109 0.377,0.097 0.05,0.009 0.004,0.004 -0.004,0 -0.033,-0.009 1.218,0.289 1.432,0.319 1.649,0.344 0.034,0.791 0.18,1.553 0.26,1.683 0.042,0.172 0.092,0.339 0.079,0.281 0.08,0.259 0.08,0.259 0.013,0.037 0.004,0.013 0.004,0.013 -0.017,-0.063 0.046,0.143 0.025,0.076 -0.029,-0.1 0.18,0.548 0.201,0.595 0,0 0.461,1.265 0.528,1.394 0.557,1.419 0.05,0.109 0.109,0.214 0.092,0.176 0.004,0.013 0.013,0.025 0.004,0.009 l 0,0.008 c 0.004,0.008 0.013,0.017 0.004,0.004 0,0 0.005,0.004 0.009,0.013 l 0.004,0.008 0,-0.008 c 0,0.004 0,0.004 0.004,0.008 0,0.004 0.004,0.009 0,0.009 0.004,0.008 0.008,0.016 0.013,0.02 l -0.009,-0.016 0.013,0.025 c 0.008,0.012 0.012,0.021 0,0.004 0.008,0.013 0.017,0.021 0.017,0.025 0.004,0.013 0.008,0.017 0.012,0.025 l 0.009,0.013 0,-0.009 0,0.017 c 0.004,0.004 0.008,0.009 0.008,0.009 l 0,0.004 0.004,0.004 0.004,0.013 0,-0.009 c 0.013,0.021 0.017,0.034 0.017,0.029 0.113,0.193 0.096,0.168 0.071,0.118 0.004,0.004 0.009,0.008 0.013,0.016 l 0.012,0.021 c 0,-0.004 -0.008,-0.016 -0.008,-0.016 0.385,0.607 0.528,0.787 0.641,0.908 0.033,0.042 0.071,0.088 0.108,0.13 -0.012,-0.008 -0.025,-0.021 -0.033,-0.033 0.038,0.041 0.075,0.088 0.126,0.142 0.18,0.213 0.322,0.36 0.268,0.293 0.389,0.41 0.72,0.691 0.757,0.683 l 0.03,0.029 c -0.833,1.838 -2.688,3.124 -4.836,3.124 -2.638,0 -4.824,-1.927 -5.243,-4.443 l 0.059,-0.088 c -0.025,0.038 0.004,0.004 0.712,-1.005 -0.046,0.063 -0.055,0.075 -0.025,0.034 -0.248,0.355 -0.243,0.351 -0.047,0.071 l 0.021,-0.03 c -0.041,0.063 -0.071,0.109 -0.008,0.009 l -0.017,0.029 c -0.104,0.163 -0.104,0.163 0.013,-0.017 l 0.004,-0.008 0.008,-0.004 c -0.033,0.05 -0.05,0.075 0.021,-0.038 l 0.021,-0.029 0.03,-0.046 c 0,0.008 0.004,0 0.012,-0.009 -0.008,0.009 -0.017,0.021 -0.008,0.009 -0.03,0.046 0.004,-0.004 0.037,-0.055 -0.016,0.025 -0.025,0.042 -0.008,0.004 0,0.005 0.138,-0.251 0.578,-1.105 -0.302,0.607 -0.226,0.473 -0.075,0.155 -0.084,0.18 -0.067,0.151 0.004,0 l 0.004,-0.017 c -0.004,0.009 0.004,-0.008 0.021,-0.033 l 0,-0.009 0.008,-0.008 c 0.013,-0.029 0.03,-0.067 0.05,-0.109 0,-0.008 0.005,-0.012 0.009,-0.021 -0.004,0.009 -0.009,0.017 -0.009,0.025 0.005,-0.012 0.009,-0.021 0.009,-0.025 0.025,-0.063 0.063,-0.146 0.105,-0.23 0.008,0.025 0.134,-0.285 0.326,-0.896 -0.079,0.272 -0.021,0.1 0.055,-0.168 0.016,-0.062 0.029,-0.109 0.046,-0.155 -0.009,0.021 -0.017,0.042 -0.021,0.059 0.016,-0.067 0.037,-0.142 0.058,-0.214 0.021,-0.016 0.092,-0.309 0.243,-1.222 -0.134,0.862 -0.038,0.377 0.025,-0.117 0.31,-0.214 0.641,-0.39 0.993,-0.532 z m 0.632,0.314 c -0.18,-0.088 -0.377,-0.184 -0.57,-0.289 0.314,0.155 0.49,0.243 0.57,0.289 z m -38.447,6.029 c 0,0.959 0.126,1.889 0.36,2.772 -0.77,0.31 -1.608,0.482 -2.483,0.482 -3.701,0 -6.708,-3.007 -6.708,-6.708 0,-0.23 0.009,-0.461 0.034,-0.683 2.881,-0.339 6.473,-0.929 10.531,-1.725 -1.097,1.688 -1.734,3.698 -1.734,5.862 z m 39.883,-5.514 -0.008,0 0.008,0 c 0.071,0.021 0.038,0.012 0,0 0,0 -0.004,0 -0.008,0 l 0.012,0 c -0.016,0 -0.033,-0.004 -0.046,-0.008 0.025,0.004 0.05,0.012 0.042,0.008 z m 0.055,0.012 c -0.013,-0.004 -0.026,-0.004 -0.038,-0.008 -0.004,0 -0.013,-0.004 -0.017,-0.004 0.021,0.004 0.042,0.008 0.055,0.012 z m -0.055,-0.012 c 0.038,0.012 0.063,0.021 0,0 z m 0.017,0.004 c 0.004,0 0.004,0 -0.013,-0.004 0.013,0.004 0.004,0.004 -0.004,0 0.008,0 0.013,0.004 0.017,0.004 z m 0.012,0.004 0.009,0.004 -0.025,-0.008 -0.013,-0.004 0.029,0.008 z m -0.016,-0.004 0.012,0.004 -0.021,-0.004 c 0.122,0.029 0.218,0.055 0.009,0 z m 0.075,0.017 -0.059,-0.013 c 0.042,0.013 0.03,0.009 -0.025,-0.008 0.042,0.012 0.063,0.017 0.084,0.021 z m -0.042,-0.004 -0.012,-0.005 c 0.104,0.026 0.184,0.047 0.012,0.005 z m -3.458,1.335 c -0.034,0.105 -0.067,0.222 -0.055,0.168 -0.012,0.042 0.021,-0.08 0.08,-0.264 -0.009,0.029 -0.013,0.054 -0.025,0.096 z m 5.422,0.842 0,0.004 c -0.004,-0.008 -0.004,-0.012 -0.004,-0.017 0,0.005 0,0.009 0.004,0.013 z m 0.004,0.025 c 0.013,0.046 0.004,0.017 -0.004,-0.025 0,0.008 0.004,0.017 0.004,0.025 z m -0.004,-0.025 c 0.067,0.214 0.033,0.109 0,0 z m 0,0.004 0.008,0.029 c 0.017,0.067 0.034,0.122 0,0.009 l 0.005,0.017 c 0.025,0.071 0.02,0.054 0,-0.009 l -0.013,-0.046 z m 0.004,0.017 c 0.017,0.046 0.013,0.033 -0.004,-0.017 0,0.004 0.004,0.013 0.004,0.017 z m 0,0.004 c 0.013,0.042 0.021,0.071 0.004,0.013 l -0.004,-0.013 z m 0,0.004 c 0.009,0.017 0.013,0.03 0,-0.004 l 0,0.004 z m 0.004,0.013 c 0.034,0.113 0.017,0.054 0,-0.009 0.013,0.042 0.025,0.08 0,0.009 z m 0.009,0.021 0,0.008 -0.009,-0.029 0.009,0.021 z m 0,0.008 -0.004,-0.012 0,-0.013 0.004,0.025 z m -0.004,-0.012 c 0.012,0.046 0.016,0.05 0,0 l 0.004,0.016 0.016,0.051 c 0.034,0.108 0.009,0.033 -0.02,-0.067 l 0,-0.009 c 0.016,0.055 0.029,0.097 0,0.009 z m 0.008,0.016 -0.004,-0.012 c 0.021,0.084 0.012,0.054 0,-0.004 0.029,0.1 0.05,0.175 0.004,0.016 z m 0,0 c 0.021,0.067 0.008,0.034 -0.004,-0.016 0.012,0.05 0.025,0.079 0.004,0.016 z m 0.004,0.021 c 0.025,0.08 0.025,0.084 0.021,0.063 l -0.021,-0.063 z m -5.992,0.486 0.013,-0.038 c 0,0 0.017,-0.033 0.037,-0.071 -0.016,0.038 -0.033,0.071 -0.05,0.109 z m 0.013,-0.038 -0.009,0.021 0.034,-0.071 c -0.021,0.042 -0.034,0.071 -0.025,0.05 z m -0.009,0.021 -0.012,0.025 c -0.004,0.009 -0.009,0.017 -0.013,0.03 l -0.004,0.008 c 0.008,-0.013 0.013,-0.029 0.021,-0.046 -0.008,0.017 -0.004,0.008 0.008,-0.017 z m -0.029,0.063 c 0,0 0.004,-0.004 0.004,-0.008 0.004,-0.009 0.009,-0.017 0.013,-0.021 -0.009,0.008 -0.013,0.021 -0.017,0.029 z m -0.008,0.008 -0.004,0.017 c 0.004,-0.008 0.008,-0.017 0.012,-0.025 -0.025,0.05 -0.046,0.092 -0.008,0.008 z m 0.004,-0.004 c 0,0.009 0,0.004 0.004,-0.004 l -0.004,0.004 z m -0.004,0.017 c -0.013,0.021 -0.013,0.025 -0.004,0 l 0.008,-0.017 c -0.004,0.004 -0.004,0.009 -0.004,0.017 z m 76.441,2.215 c 5.892,15.015 -2.843,27.183 -13.638,28.557 -3.161,0.146 -3.827,-0.394 -2.453,-3.338 3.827,-8.73 7.805,-17.318 12.168,-25.512 0.59,-1.868 2.943,-2.554 3.923,0.293 z m -69.792,-1.273 0,0.004 c -0.004,-0.008 -0.008,-0.016 -0.013,-0.025 0.005,0.009 0.009,0.017 0.013,0.021 z m 0,0.004 0.008,0.009 c 0.009,0.021 0.005,0.016 0,0.004 l -0.004,-0.009 c 0.009,0.013 0.009,0.021 0.004,0.009 l -0.004,-0.009 c 0,0 0,0.005 0.004,0.009 0.005,0.012 0,0.008 -0.004,-0.004 l -0.004,-0.009 z m -7.198,0.063 c 0,0.004 0.017,-0.025 0.042,-0.059 -0.033,0.051 -0.054,0.08 -0.042,0.059 z m 7.202,-0.05 0.004,0.004 0,0.004 -0.004,-0.008 z m 0.013,0.012 c 0,-0.004 -0.004,-0.004 -0.004,-0.008 0,0.004 0.004,0.008 0.004,0.008 z m -0.009,-0.004 0.009,0.009 0,0.004 -0.009,-0.013 z m 0.013,0.013 c 0.004,0.004 0,0 -0.004,-0.009 0,0.005 0,0.005 0.004,0.009 z m -7.202,0.017 -0.013,0.016 c -0.008,0.004 -0.012,0.013 -0.004,0 l 0.004,-0.004 c -0.008,0.008 0,-0.004 0.013,-0.012 z m -0.021,0.029 c -0.004,0 -0.004,0.004 -0.008,0.008 l 0.004,-0.008 c 0.008,-0.009 0.017,-0.021 0.025,-0.029 -0.008,0.008 -0.017,0.016 -0.021,0.029 z m 7.231,-0.029 0.004,0.008 0.005,0.004 -0.005,0 c 0,-0.008 -0.004,-0.012 -0.004,-0.012 z m 0,0 0.004,0.004 0.005,0.008 c 0,0 0,-0.004 -0.009,-0.012 z m 0.009,0.02 -0.009,-0.016 c 0,0.004 0.004,0.012 0.009,0.016 z m -7.227,-0.016 c -0.026,0.042 -0.042,0.067 -0.03,0.046 -0.012,0.021 -0.012,0.017 0.009,-0.013 0.004,-0.004 0.004,-0.008 0.008,-0.008 l 0.017,-0.025 z m 7.227,0.004 0.008,0.017 -0.004,-0.005 -0.004,-0.008 0,-0.004 z m -7.244,0.021 c -0.004,0.004 -0.009,0.008 0.004,-0.004 -0.059,0.083 -0.025,0.042 0.008,-0.009 -0.004,0.004 -0.008,0.009 -0.012,0.013 z m 0.004,-0.009 -0.004,0.009 0.008,-0.013 -0.004,0.004 z m -0.004,0.009 -0.009,0.012 0.017,-0.025 -0.008,0.013 z m 0,0 -0.004,0.004 0.008,-0.013 -0.004,0.009 z m -0.034,0.046 -0.004,0.008 c 0.009,-0.016 0.021,-0.033 0.038,-0.054 -0.013,0.017 -0.025,0.033 -0.034,0.046 z m 7.294,-0.029 c 0,0.004 0.005,0.008 0.005,0.008 l 0,0.004 -0.017,-0.025 0,-0.004 c 0.004,0 0.004,0.008 0.012,0.017 z m -0.008,-0.017 0.017,0.029 c -0.004,-0.004 -0.009,-0.008 -0.009,-0.012 -0.004,-0.009 -0.008,-0.013 -0.008,-0.017 z m 0,0 0.008,0.012 c -0.004,-0.004 -0.008,-0.008 -0.008,-0.012 z m -7.252,0.004 c -0.063,0.088 -0.034,0.046 -0.004,0.004 -0.03,0.042 -0.051,0.076 0,-0.004 z m -0.004,0 -0.005,0.008 c -0.083,0.122 -0.146,0.21 -0.016,0.017 -0.017,0.029 0,0.004 0.021,-0.025 z m 7.26,0 0.004,0.008 c 0,0.005 0,0.005 -0.004,-0.008 z m -7.26,0 -0.013,0.025 0.004,-0.008 0.009,-0.017 z m 0,0.004 c -0.013,0.017 -0.025,0.038 -0.021,0.03 l 0.004,-0.005 0.017,-0.025 z m -0.005,0.004 -0.029,0.042 c 0.004,-0.008 0.013,-0.025 0.029,-0.042 z m 7.269,0 0.009,0.013 c -0.004,-0.004 -0.009,-0.008 -0.009,-0.013 z m -7.273,0.009 -0.016,0.025 -0.013,0.012 c 0.004,-0.004 0.004,-0.008 0.008,-0.012 0.009,-0.008 0.017,-0.021 0.025,-0.034 -0.012,0.021 -0.025,0.038 -0.004,0.009 z m 7.282,0.004 0.008,0.021 c 0,0 -0.004,-0.008 -0.008,-0.021 z m -0.004,0.004 0.004,0.004 0,0.005 -0.004,-0.009 z m -7.286,0.004 -0.042,0.059 0.004,-0.004 0.042,-0.059 -0.004,0.004 z m -0.021,0.021 0.013,-0.016 0.004,-0.009 -0.017,0.025 z m 7.311,-0.016 0.008,0.008 0,0.004 -0.008,-0.012 z m -7.303,0.012 -0.021,0.038 0.03,-0.05 -0.009,0.012 z m -0.008,0.008 0.013,-0.012 0.004,-0.004 c -0.009,0.004 -0.013,0.012 -0.017,0.016 z m 0.017,-0.016 -0.03,0.042 0.013,-0.021 0.017,-0.021 z m 7.302,0.004 0.004,0.008 c 0.013,0.021 0.009,0.013 -0.004,-0.008 z m -7.323,0.021 0.008,-0.013 c -0.004,0.004 -0.008,0.009 -0.008,0.013 z m 7.327,-0.013 0,0.004 -0.004,-0.004 0.004,0 z m -7.319,0 c -0.008,0.009 -0.008,0.013 -0.004,0 -0.004,0.009 0,0.004 0.004,0 z m 7.324,0.013 0,-0.009 c 0,0.005 0,0.013 0,0.009 z m -7.328,-0.009 c -0.004,0.005 -0.004,0.009 -0.004,0.013 l 0.004,-0.013 c -0.004,0.013 -0.013,0.017 0,0 z m 7.328,0.009 c 0.012,0.017 0.004,0.004 0,-0.004 0.004,0.012 0.008,0.021 0,0.004 z m 0.008,0 0,0.004 -0.004,0.004 c 0.004,0 0.004,-0.004 0.004,-0.008 z m -7.344,0.008 -0.017,0.021 c -0.101,0.143 -0.046,0.067 0.021,-0.025 -0.03,0.042 -0.042,0.063 -0.004,0.004 z m 0,-0.004 0,0.004 c -0.021,0.025 -0.013,0.013 0,-0.004 0,0.004 -0.005,0.008 0,0 z m 7.34,0.004 0.004,0.009 c -0.004,-0.005 -0.004,-0.009 -0.008,-0.009 l 0.004,0 z m -7.353,0.021 0.004,-0.004 0.004,-0.013 0.005,-0.004 -0.013,0.021 z m 0.004,-0.012 c -0.012,0.025 -0.012,0.025 0,0 z m 7.357,0.004 0,0.004 -0.004,-0.008 c 0.004,0.008 0.004,0.008 0.004,0.004 z m -7.357,0 -0.004,0.008 0.008,-0.012 c -0.012,0.012 -0.012,0.016 -0.004,0.004 z m -0.008,0.012 -0.013,0.017 0.017,-0.029 0.004,-0.004 -0.008,0.016 z m 0,0 c -0.025,0.038 -0.017,0.025 0.008,-0.008 -0.037,0.059 -0.067,0.1 -0.008,0.008 z m -0.009,0.009 c -0.004,0.008 -0.004,0.008 0.009,-0.013 l -0.009,0.013 z m 7.382,-0.004 0.005,0.008 c 0.008,0.025 0.012,0.029 -0.005,-0.004 l 0.005,0.004 c 0.05,0.088 0.029,0.046 -0.005,-0.008 z m 0.005,0 0.071,0.117 0,0.004 c -0.009,-0.017 -0.029,-0.054 -0.071,-0.121 z m 0.083,0.134 c 0.009,0.016 0.017,0.033 0.009,0.02 -0.004,-0.008 -0.009,-0.012 -0.013,-0.016 -0.004,-0.004 -0.008,-0.013 -0.008,-0.017 l 0.008,0.008 c -0.004,-0.004 -0.008,-0.008 -0.008,-0.012 0.004,0.012 0.012,0.025 0.012,0.017 z m 1.123,1.465 c -0.093,-0.096 -0.185,-0.197 -0.268,-0.293 -0.038,-0.042 -0.063,-0.071 -0.093,-0.109 0.218,0.239 0.327,0.36 0.361,0.402 z m -17.239,3.161 c 1.574,0 3.073,-0.36 4.409,-0.996 0.172,0.586 0.264,1.21 0.264,1.855 0,3.701 -3.011,6.712 -6.712,6.712 -2.55,0 -4.769,-1.428 -5.908,-3.522 1.377,-1.507 2.336,-3.4 2.688,-5.497 1.536,0.917 3.337,1.448 5.259,1.448 z m 68.938,29.981 c 0.297,1.18 -58.977,14.039 -80.177,12.959 -7.75,-0.687 -8.144,-3.337 -5.003,-4.024 21.396,-2.361 42.642,-5.347 63.787,-8.734 11.875,-2.257 20.095,-2.831 21.393,-0.201 z"
           stroke-miterlimit="79.8403193612775"
           id="path7143"
           inkscape:connector-curvature="0"
           style="fill:#000000;stroke:none;stroke-width:0.147;marker-start:none;marker-end:none" />
      </g>
    </g>
  </g>
  <path
     style="fill:#ffffff;fill-opacity:1;fill-rule:nonzero;stroke:#c8beb7;stroke-width:0.73822147;stroke-miterlimit:4;stroke-opacity:1;stroke-dasharray:none"
     d="m 170.60073,62.839298 c -19.49218,-3.122724 -25.9801,-4.129935 -35.47247,-5.506891 -16.01364,-2.322926 -27.25857,-3.816838 -41.598299,-5.526421 -7.253459,-0.864758 -13.06852,-1.736664 -13.396203,-2.008616 -1.544912,-1.282163 0.439108,-2.830746 4.573269,-3.569561 3.384035,-0.604761 17.056593,-0.263644 24.211023,0.604042 23.03588,2.793778 55.59602,8.690502 73.02907,13.225748 5.78314,1.504498 6.05004,1.655986 4.59662,2.609035 -1.62869,1.067993 -9.80182,1.156508 -15.94301,0.172664 l 0,0 z"
     id="path7149"
     inkscape:connector-curvature="0"
     transform="matrix(0.80000008,0,0,0.80000008,0,-10e-6)" />
  <path
     style="fill:#ffffff;fill-opacity:1;fill-rule:nonzero;stroke:#c8beb7;stroke-width:0.73822147;stroke-miterlimit:4;stroke-opacity:1;stroke-dasharray:none"
     d="m 205.52697,105.69787 c -1.2207,-0.68314 -16.44162,-32.343019 -17.07722,-35.521019 -0.14975,-0.74871 -0.0397,-1.255162 0.32264,-1.484583 0.8589,-0.543853 3.54903,-0.421374 5.89779,0.26852 10.39167,3.052316 17.20035,13.443926 16.33369,24.928975 -0.25392,3.364917 -1.789,9.450567 -2.76108,10.945967 -0.64949,0.99914 -1.81173,1.36809 -2.71582,0.86214 z"
     id="path7151"
     inkscape:connector-curvature="0"
     transform="matrix(0.80000008,0,0,0.80000008,0,-10e-6)" />
  <path
     style="fill:#ffffff;fill-opacity:1;fill-rule:nonzero;stroke:#c8beb7;stroke-width:0.73822147;stroke-miterlimit:4;stroke-opacity:1;stroke-dasharray:none"
     d="m 67.927641,109.8829 c -0.216776,-0.091 -2.522487,-0.487 -5.123801,-0.8799 l -4.729663,-0.71437 0.02246,-1.81106 c 0.05252,-4.23514 4.769945,-7.71074 9.313368,-6.86169 l 1.305915,0.244042 -0.127194,2.886728 c -0.09162,2.07942 0.08416,3.51278 0.62857,5.12537 l 0.755764,2.23865 -0.82564,-0.0311 c -0.454101,-0.0171 -1.003001,-0.10561 -1.219777,-0.19666 z"
     id="path7153"
     inkscape:connector-curvature="0"
     transform="matrix(0.80000008,0,0,0.80000008,0,-10e-6)" />
  <path
     style="fill:#ffffff;fill-opacity:1;fill-rule:nonzero;stroke:#c8beb7;stroke-width:0.73822147;stroke-miterlimit:4;stroke-opacity:1;stroke-dasharray:none"
     d="m 78.769265,110.66523 c -4.281746,-1.8568 -6.033974,-6.90347 -3.86219,-11.123653 2.429141,-4.720282 8.411904,-5.827684 12.429031,-2.300599 3.766042,3.306632 3.73141,8.668322 -0.07759,12.012662 -0.816828,0.71719 -1.920391,1.46946 -2.452361,1.67171 -1.44099,0.54787 -4.47518,0.41713 -6.03689,-0.26012 z"
     id="path7155"
     inkscape:connector-curvature="0"
     transform="matrix(0.80000008,0,0,0.80000008,0,-10e-6)" />
  <path
     style="fill:#ffffff;fill-opacity:1;fill-rule:nonzero;stroke:#c8beb7;stroke-width:0.73822147;stroke-miterlimit:4;stroke-opacity:1;stroke-dasharray:none"
     d=""
     id="path7157"
     inkscape:connector-curvature="0"
     transform="matrix(0.80000008,0,0,0.80000008,0,-10e-6)" />
  <path
     style="fill:#ffffff;fill-opacity:1;fill-rule:nonzero;stroke:#c8beb7;stroke-width:0.73822147;stroke-miterlimit:4;stroke-opacity:1;stroke-dasharray:none"
     d="m 99.917593,117.45945 c -4.232235,-1.19823 -5.965021,-1.86577 -6.273372,-2.41676 -0.234313,-0.4187 -0.424549,-1.74402 -0.422745,-2.94518 0.0073,-4.84115 3.815628,-8.68719 8.602084,-8.68719 7.61282,0 11.43608,9.07184 6.18748,14.68166 -0.55775,0.59613 -1.2913,1.07018 -1.6301,1.05343 -0.3388,-0.0168 -3.24731,-0.77543 -6.463347,-1.68596 z"
     id="path7159"
     inkscape:connector-curvature="0"
     transform="matrix(0.80000008,0,0,0.80000008,0,-10e-6)" />
  <path
     style="fill:#ffffff;fill-opacity:1;fill-rule:nonzero;stroke:#c8beb7;stroke-width:0.73822147;stroke-miterlimit:4;stroke-opacity:1;stroke-dasharray:none"
     d="m 95.116721,99.439435 c -0.130395,-0.593687 -0.839314,-2.079534 -1.575374,-3.301883 l -1.338292,-2.222453 1.469533,-1.469533 c 3.266471,-3.266471 8.716952,-3.148135 11.577442,0.251361 1.4898,1.770526 2.43487,4.488886 2.12846,6.122195 l -0.25418,1.354888 -1.8262,-0.549608 c -2.46302,-0.741259 -5.410527,-0.672054 -7.891846,0.185294 l -2.05246,0.709164 -0.237083,-1.079425 z"
     id="path7161"
     inkscape:connector-curvature="0"
     transform="matrix(0.80000008,0,0,0.80000008,0,-10e-6)" />
  <path
     style="fill:#ffffff;fill-opacity:1;fill-rule:nonzero;stroke:#c8beb7;stroke-width:0.73822147;stroke-miterlimit:4;stroke-opacity:1;stroke-dasharray:none"
     d="m 115.12573,110.63781 c -0.27097,-0.10928 -0.49267,-0.59899 -0.49267,-1.08824 0,-0.48925 -0.54952,-1.98922 -1.22115,-3.33327 -1.31743,-2.63642 -1.31402,-3.55862 0.0194,-5.25385 1.88769,-2.399811 5.59845,-2.968007 8.13622,-1.245826 2.42717,1.647116 2.61273,2.096606 1.43925,3.486386 -1.27374,1.50853 -2.44179,4.04953 -2.45304,5.33637 -0.007,0.85324 -0.26827,1.05342 -1.88081,1.4436 -1.02969,0.24914 -2.1382,0.5431 -2.46337,0.65325 -0.32516,0.11015 -0.81291,0.11086 -1.08388,0.002 l 0,0 z"
     id="path7163"
     inkscape:connector-curvature="0"
     transform="matrix(0.80000008,0,0,0.80000008,0,-10e-6)" />
  <path
     style="fill:#ffffff;fill-opacity:1;fill-rule:nonzero;stroke:#c8beb7;stroke-width:0.73822147;stroke-miterlimit:4;stroke-opacity:1;stroke-dasharray:none"
     d="m 119.16565,123.29811 c -6.57337,-2.30115 -6.50265,-2.225 -4.92401,-5.30235 2.58004,-5.02946 9.51128,-6.12248 13.50422,-2.12954 l 1.44283,1.44283 -1.3803,1.61256 c -0.80869,0.94478 -1.63096,2.51466 -1.98559,3.79091 -0.33292,1.19809 -0.63675,2.28565 -0.67519,2.41679 -0.0384,0.13115 -2.73032,-0.69289 -5.98196,-1.8312 z"
     id="path7165"
     inkscape:connector-curvature="0"
     transform="matrix(0.80000008,0,0,0.80000008,0,-10e-6)" />
  <path
     style="fill:#ffffff;fill-opacity:1;fill-rule:nonzero;stroke:#c8beb7;stroke-width:0.73822147;stroke-miterlimit:4;stroke-opacity:1;stroke-dasharray:none"
     d="m 129.44074,112.02514 c -0.85198,-0.62933 -2.41195,-1.45056 -3.46659,-1.82496 -1.73229,-0.61495 -1.89506,-0.77591 -1.6848,-1.66606 1.05178,-4.45287 7.63784,-6.33819 10.42206,-2.98341 0.43349,0.52232 0.29801,0.85165 -0.89236,2.16925 -0.77189,0.85438 -1.62112,2.31825 -1.88718,3.25302 -0.26606,0.93478 -0.58686,1.81137 -0.7129,1.948 -0.12604,0.13662 -0.92624,-0.26651 -1.77823,-0.89584 z"
     id="path7167"
     inkscape:connector-curvature="0"
     transform="matrix(0.80000008,0,0,0.80000008,0,-10e-6)" />
  <path
     style="fill:#ffffff;fill-opacity:1;fill-rule:nonzero;stroke:#c8beb7;stroke-width:0.73822147;stroke-miterlimit:4;stroke-opacity:1;stroke-dasharray:none"
     d="m 145.58606,120.39965 c -0.13038,-0.4108 -1.09593,-1.55028 -2.14566,-2.53218 -1.99718,-1.86813 -4.83996,-3.02713 -7.42489,-3.02713 -1.1967,0 -1.30819,-0.0916 -1.0796,-0.88682 0.14019,-0.48774 0.35009,-1.24153 0.46644,-1.67509 0.39487,-1.47141 2.19018,-3.43319 3.81861,-4.17269 4.04812,-1.83833 8.55208,-0.0556 10.27455,4.06688 1.06607,2.55146 0.53846,5.37123 -1.42301,7.60522 -1.34641,1.53348 -2.13453,1.73058 -2.48644,0.62181 z"
     id="path7169"
     inkscape:connector-curvature="0"
     transform="matrix(0.80000008,0,0,0.80000008,0,-10e-6)" />
  <path
     style="fill:#ffffff;fill-opacity:1;fill-rule:nonzero;stroke:#c8beb7;stroke-width:0.73822147;stroke-miterlimit:4;stroke-opacity:1;stroke-dasharray:none"
     d="m 131.59419,127.79041 c -1.61858,-0.64089 -2.99916,-1.22155 -3.06796,-1.29036 -0.36526,-0.36525 0.86995,-4.13559 1.71996,-5.25002 2.7058,-3.54748 8.21686,-3.82906 11.31441,-0.57807 l 1.11147,1.16652 -1.1884,0.41428 c -1.69434,0.59065 -4.52751,3.33157 -5.36622,5.19149 -0.39312,0.87179 -0.90954,1.5685 -1.14758,1.54824 -0.23805,-0.0203 -1.75711,-0.56119 -3.37568,-1.20208 l 0,0 z"
     id="path7171"
     inkscape:connector-curvature="0"
     transform="matrix(0.80000008,0,0,0.80000008,0,-10e-6)" />
  <path
     style="fill:#ffffff;fill-opacity:1;fill-rule:nonzero;stroke:#c8beb7;stroke-width:0.73822147;stroke-miterlimit:4;stroke-opacity:1;stroke-dasharray:none"
     d="m 140.3506,131.38187 c -1.09882,-0.44167 -1.11042,-0.91235 -0.0642,-2.60512 1.23679,-2.00117 3.72189,-3.29467 6.32975,-3.29467 2.4018,0 3.37006,0.5246 3.55933,1.92846 0.11467,0.85051 -0.25988,1.11036 -3.81423,2.6462 -4.15963,1.79738 -4.59625,1.89364 -6.01061,1.32513 z"
     id="path7173"
     inkscape:connector-curvature="0"
     transform="matrix(0.80000008,0,0,0.80000008,0,-10e-6)" />
  <path
     style="fill:#ffffff;fill-opacity:1;fill-rule:nonzero;stroke:#c8beb7;stroke-width:0.73822147;stroke-miterlimit:4;stroke-opacity:1;stroke-dasharray:none"
     d=""
     id="path7175"
     inkscape:connector-curvature="0"
     transform="matrix(0.80000008,0,0,0.80000008,0,-10e-6)" />
  <path
     style="fill:#ffffff;fill-opacity:1;fill-rule:nonzero;stroke:#c8beb7;stroke-width:0.73822147;stroke-miterlimit:4;stroke-opacity:1;stroke-dasharray:none"
     d="m 153.47515,126.37598 c -0.43578,-1.13563 -0.18681,-2.71478 0.74279,-4.71138 2.13882,-4.59373 7.67083,-5.75935 11.47629,-2.4181 2.57285,2.25899 2.51919,2.47622 -0.91335,3.6976 -1.67655,0.59656 -4.85748,1.73973 -7.06874,2.54038 -3.2637,1.18173 -4.06122,1.34953 -4.23699,0.8915 z"
     id="path7177"
     inkscape:connector-curvature="0"
     transform="matrix(0.80000008,0,0,0.80000008,0,-10e-6)" />
  <path
     style="fill:#ffffff;fill-opacity:1;fill-rule:nonzero;stroke:#c8beb7;stroke-width:0.73822147;stroke-miterlimit:4;stroke-opacity:1;stroke-dasharray:none"
     d="m 143.01103,174.40452 c 0,-17.315 -0.10529,-32.00827 -0.23398,-32.65171 -0.23309,-1.16547 -0.21484,-1.17854 4.8282,-3.45618 19.41987,-8.77079 36.56136,-13.83457 50.84367,-15.01978 l 3.21454,-0.26675 0.22479,2.51694 c 0.12364,1.38431 0.27336,14.10254 0.33271,28.26273 l 0.10792,25.7458 -3.94138,1.69192 c -2.16777,0.93055 -13.60764,6.08474 -25.42194,11.45374 -20.59144,9.35779 -29.25402,13.20511 -29.73242,13.20511 -0.12216,0 -0.22211,-14.16682 -0.22211,-31.48182 z m 40.13264,-6.57925 c 6.84274,-2.28891 11.28606,-6.89493 13.29805,-13.78498 0.51499,-1.7636 0.69532,-3.91758 0.72451,-8.65422 0.0338,-5.48637 -0.075,-6.66797 -0.83657,-9.08885 -1.75143,-5.56721 -4.69278,-7.96353 -9.2658,-7.54886 -2.9104,0.26391 -4.74363,1.44822 -5.92577,3.82821 -0.8095,1.62975 -0.88166,2.33314 -0.88948,8.67105 -0.009,7.2061 -0.24091,8.38435 -1.74499,8.86173 -1.98394,0.62968 -3.89808,-1.61133 -7.44855,-8.7205 -1.83201,-3.66826 -3.11942,-4.71664 -6.43579,-5.24089 -3.97371,-0.62816 -8.24574,1.33065 -9.77023,4.47982 -2.74376,5.66784 1.8538,16.05033 9.97125,22.5177 6.74799,5.3763 12.13105,6.75113 18.32337,4.67979 l 0,0 z"
     id="path7179"
     inkscape:connector-curvature="0"
     transform="matrix(0.80000008,0,0,0.80000008,0,-10e-6)" />
  <path
     style="fill:#ffffff;fill-opacity:1;fill-rule:nonzero;stroke:#c8beb7;stroke-width:0.73822147;stroke-miterlimit:4;stroke-opacity:1;stroke-dasharray:none"
     d="m 176.36214,162.9036 c -2.71179,-0.67672 -6.15106,-2.81421 -8.8872,-5.52335 -2.63521,-2.6092 -6.51789,-7.80033 -7.4372,-9.9435 -1.16647,-2.71935 -0.0207,-5.53224 2.25344,-5.53224 1.76226,0 3.72119,2.05617 6.64626,6.97619 1.64415,2.76548 2.899,4.39394 3.94382,5.118 3.91349,2.71205 7.98418,2.34898 10.39265,-0.92693 1.17852,-1.60299 1.63144,-5.20873 1.39053,-11.07023 -0.19761,-4.80802 -0.14329,-5.48152 0.53157,-6.59124 1.57745,-2.5939 4.23179,-2.03129 5.69957,1.20807 2.02127,4.4609 2.0051,11.51819 -0.0388,16.9279 -2.65724,7.03311 -8.5539,10.83983 -14.49465,9.35733 z"
     id="path7181"
     inkscape:connector-curvature="0"
     transform="matrix(0.80000008,0,0,0.80000008,0,-10e-6)" />
  <path
     style="fill:#ffffff;fill-opacity:1;fill-rule:nonzero;stroke:#c8beb7;stroke-width:0.73822147;stroke-miterlimit:4;stroke-opacity:1;stroke-dasharray:none"
     d="M 92.955438,194.05033 C 69.001668,187.14581 48.979253,181.38782 48.461181,181.25479 l -0.941949,-0.24188 0.190955,-32.10538 c 0.105025,-17.65796 0.322749,-32.2364 0.483832,-32.39654 0.446862,-0.44425 7.839476,-0.27101 12.04792,0.28234 18.630264,2.44959 55.984631,12.88372 73.112701,20.42245 l 3.54724,1.56128 0.23975,16.70522 c 0.45567,31.7505 0.40199,51.19596 -0.14121,51.15703 -0.27097,-0.0194 -20.09121,-5.68445 -44.044982,-12.58898 l 0,0 z m 13.807372,-32.31421 c 1.04614,-0.55988 1.64536,-3.01587 1.1625,-4.76466 -0.57615,-2.08661 -1.76427,-2.85942 -6.00322,-3.90475 l -3.842851,-0.94766 -0.01731,-6.12546 c -0.02215,-7.83864 -0.455919,-11.70375 -1.420246,-12.65506 -0.829772,-0.81857 -14.258046,-4.70335 -16.257777,-4.70335 -0.893592,0 -1.634232,0.35028 -2.436054,1.1521 l -1.152097,1.1521 0,7.88527 0,7.88527 -2.659181,-0.76046 c -3.346832,-0.95711 -4.528762,-0.95772 -5.392974,-0.003 -1.451901,1.60433 -1.125372,5.87449 0.501074,6.55276 1.160459,0.48394 35.313266,9.59235 36.053506,9.61531 0.39361,0.0122 1.05269,-0.15818 1.46463,-0.37864 l 0,-1e-5 z"
     id="path7183"
     inkscape:connector-curvature="0"
     transform="matrix(0.80000008,0,0,0.80000008,0,-10e-6)" />
  <path
     style="fill:#ffffff;fill-opacity:1;fill-rule:nonzero;stroke:#c8beb7;stroke-width:0.73822147;stroke-miterlimit:4;stroke-opacity:1;stroke-dasharray:none"
     d="m 85.171202,146.61906 -1.675089,-0.35964 0,-4.51124 0,-4.51124 1.675089,0.27718 c 0.921299,0.15245 1.80811,0.35587 1.970693,0.45205 0.356287,0.21076 0.323395,7.08945 -0.03929,8.21621 -0.229918,0.7143 -0.428838,0.75928 -1.931405,0.43668 l 0,0 z"
     id="path7185"
     inkscape:connector-curvature="0"
     transform="matrix(0.80000008,0,0,0.80000008,0,-10e-6)" />
</svg>
