<?xml version="1.0" encoding="UTF-8" standalone="no"?>
<!--Generator: Xara Designer (www.xara.com), SVG filter version: 3.0.0.4-->

<svg
   xmlns:dc="http://purl.org/dc/elements/1.1/"
   xmlns:cc="http://creativecommons.org/ns#"
   xmlns:rdf="http://www.w3.org/1999/02/22-rdf-syntax-ns#"
   xmlns:svg="http://www.w3.org/2000/svg"
   xmlns="http://www.w3.org/2000/svg"
   xmlns:sodipodi="http://sodipodi.sourceforge.net/DTD/sodipodi-0.dtd"
   xmlns:inkscape="http://www.inkscape.org/namespaces/inkscape"
   version="1.1"
   overflow="visible"
   width="256"
   height="256"
   viewBox="0 0 204.80002 204.8"
   id="svg7419"
   inkscape:version="0.48.4 r9939"
   sodipodi:docname="seaside.svg"
   style="fill-rule:evenodd;stroke-width:0.50099999;stroke-linejoin:bevel;overflow:visible"
   inkscape:export-filename="C:\Users\Bas des Bouvrie\workspace\DominionToolkit\res\drawable-ldpi\seaside_icon.png"
   inkscape:export-xdpi="11.25"
   inkscape:export-ydpi="11.25">
  <metadata
     id="metadata7507">
    <rdf:RDF>
      <cc:Work
         rdf:about="">
        <dc:format>image/svg+xml</dc:format>
        <dc:type
           rdf:resource="http://purl.org/dc/dcmitype/StillImage" />
        <dc:title></dc:title>
      </cc:Work>
    </rdf:RDF>
  </metadata>
  <sodipodi:namedview
     pagecolor="#ffffff"
     bordercolor="#666666"
     borderopacity="1"
     objecttolerance="10"
     gridtolerance="10"
     guidetolerance="10"
     inkscape:pageopacity="0"
     inkscape:pageshadow="2"
     inkscape:window-width="1920"
     inkscape:window-height="1018"
     id="namedview7505"
     showgrid="false"
     inkscape:zoom="1.2685895"
     inkscape:cx="64.953628"
     inkscape:cy="154.40153"
     inkscape:window-x="-8"
     inkscape:window-y="-8"
     inkscape:window-maximized="1"
     inkscape:current-layer="svg7419" />
  <defs
     id="defs7421">
    <marker
       id="DefaultArrow2"
       markerUnits="strokeWidth"
       viewBox="0 0 1 1"
       markerWidth="1"
       markerHeight="1"
       overflow="visible"
       orient="auto"
       style="overflow:visible">
      <!-- REF_ARROW_STRAIGHT (-2) -->
      <g
         transform="scale(0.00925926,0.00925926)"
         id="g7424">
        <!-- 1/108 -->
        <path
           d="M -9,54 -9,-54 117,0 z"
           id="path7426"
           inkscape:connector-curvature="0" />
      </g>
    </marker>
    <marker
       id="DefaultArrow3"
       markerUnits="strokeWidth"
       viewBox="0 0 1 1"
       markerWidth="1"
       markerHeight="1"
       overflow="visible"
       orient="auto"
       style="overflow:visible">
      <!-- REF_ARROW_ANGLED -->
      <g
         transform="scale(0.00925926,0.00925926)"
         id="g7429">
        <path
           d="M -27,54 -9,0 -27,-54 135,0 z"
           id="path7431"
           inkscape:connector-curvature="0" />
      </g>
    </marker>
    <marker
       id="DefaultArrow4"
       markerUnits="strokeWidth"
       viewBox="0 0 1 1"
       markerWidth="1"
       markerHeight="1"
       overflow="visible"
       orient="auto"
       style="overflow:visible">
      <!-- REF_ARROW_ROUNDED -->
      <g
         transform="scale(0.00925926,0.00925926)"
         id="g7434">
        <path
           d="m -9,0 0,-45 c 0,-6.708 11.808,-11.58 18,-9 l 108,45 c 3.916,1.631 9,4.758 9,9 0,4.242 -5.084,7.369 -9,9 L 9,54 C 2.808,56.58 -9,51.708 -9,45 z"
           id="path7436"
           inkscape:connector-curvature="0" />
      </g>
    </marker>
    <marker
       id="DefaultArrow5"
       markerUnits="strokeWidth"
       viewBox="0 0 1 1"
       markerWidth="1"
       markerHeight="1"
       overflow="visible"
       orient="auto"
       style="overflow:visible">
      <!-- REF_ARROW_SPOT -->
      <g
         transform="scale(0.00925926,0.00925926)"
         id="g7439">
        <path
           d="M -54,0 C -54,29.807 -29.807,54 0,54 29.807,54 54,29.807 54,0 54,-29.807 29.807,-54 0,-54 -29.807,-54 -54,-29.807 -54,0 z"
           id="path7441"
           inkscape:connector-curvature="0" />
      </g>
    </marker>
    <marker
       id="DefaultArrow6"
       markerUnits="strokeWidth"
       viewBox="0 0 1 1"
       markerWidth="1"
       markerHeight="1"
       overflow="visible"
       orient="auto"
       style="overflow:visible">
      <!-- REF_ARROW_DIAMOND -->
      <g
         transform="scale(0.00925926,0.00925926)"
         id="g7444">
        <path
           d="M -63,0 0,63 63,0 0,-63 z"
           id="path7446"
           inkscape:connector-curvature="0" />
      </g>
    </marker>
    <marker
       id="DefaultArrow7"
       markerUnits="strokeWidth"
       viewBox="0 0 1 1"
       markerWidth="1"
       markerHeight="1"
       overflow="visible"
       orient="auto"
       style="overflow:visible">
      <!-- REF_ARROW_FEATHER -->
      <g
         transform="scale(0.00925926,0.00925926)"
         id="g7449">
        <path
           d="m 18,-54 90,0 L 63,0 108,54 18,54 -36,0 z"
           id="path7451"
           inkscape:connector-curvature="0" />
      </g>
    </marker>
    <marker
       id="DefaultArrow8"
       markerUnits="strokeWidth"
       viewBox="0 0 1 1"
       markerWidth="1"
       markerHeight="1"
       overflow="visible"
       orient="auto"
       style="overflow:visible">
      <!-- REF_ARROW_FEATHER2 -->
      <g
         transform="scale(0.00925926,0.00925926)"
         id="g7454">
        <path
           d="m -36,0 54,-54 36,0 -36,36 9,0 36,-36 36,0 -36,36 9,0 36,-36 36,0 -54,54 54,54 -36,0 -36,-36 -9,0 36,36 -36,0 -36,-36 -9,0 36,36 -36,0 z"
           id="path7456"
           inkscape:connector-curvature="0" />
      </g>
    </marker>
    <marker
       id="DefaultArrow9"
       markerUnits="strokeWidth"
       viewBox="0 0 1 1"
       markerWidth="1"
       markerHeight="1"
       overflow="visible"
       orient="auto"
       style="overflow:visible">
      <!-- REF_ARROW_HOLLOWDIAMOND -->
      <g
         transform="scale(0.00925926,0.00925926)"
         id="g7459">
        <path
           d="M 0,45 -45,0 0,-45 45,0 z M 0,63 -63,0 0,-63 63,0 z"
           id="path7461"
           inkscape:connector-curvature="0" />
      </g>
    </marker>
    <filter
       id="StainedFilter"
       color-interpolation-filters="sRGB">
      <feBlend
         mode="multiply"
         in2="BackgroundImage"
         in="SourceGraphic"
         result="blend"
         id="feBlend7464" />
      <feComposite
         in="blend"
         in2="SourceAlpha"
         operator="in"
         result="comp"
         id="feComposite7466" />
    </filter>
    <filter
       id="BleachFilter"
       color-interpolation-filters="sRGB">
      <feBlend
         mode="screen"
         in2="BackgroundImage"
         in="SourceGraphic"
         result="blend"
         id="feBlend7469" />
      <feComposite
         in="blend"
         in2="SourceAlpha"
         operator="in"
         result="comp"
         id="feComposite7471" />
    </filter>
    <filter
       id="InvertTransparencyBitmapFilter"
       color-interpolation-filters="sRGB">
      <feComponentTransfer
         id="feComponentTransfer7474">
        <feFuncR
           type="gamma"
           amplitude="1.055"
           exponent=".416666666"
           offset="-0.055"
           id="feFuncR7476" />
        <feFuncG
           type="gamma"
           amplitude="1.055"
           exponent=".416666666"
           offset="-0.055"
           id="feFuncG7478" />
        <feFuncB
           type="gamma"
           amplitude="1.055"
           exponent=".416666666"
           offset="-0.055"
           id="feFuncB7480" />
      </feComponentTransfer>
      <feComponentTransfer
         id="feComponentTransfer7482">
        <feFuncR
           type="linear"
           slope="-1"
           intercept="1"
           id="feFuncR7484" />
        <feFuncG
           type="linear"
           slope="-1"
           intercept="1"
           id="feFuncG7486" />
        <feFuncB
           type="linear"
           slope="-1"
           intercept="1"
           id="feFuncB7488" />
        <feFuncA
           type="linear"
           slope="1"
           intercept="0"
           id="feFuncA7490" />
      </feComponentTransfer>
      <feComponentTransfer
         id="feComponentTransfer7492">
        <feFuncR
           type="gamma"
           amplitude="1"
           exponent="2.4"
           offset="0"
           id="feFuncR7494" />
        <feFuncG
           type="gamma"
           amplitude="1"
           exponent="2.4"
           offset="0"
           id="feFuncG7496" />
        <feFuncB
           type="gamma"
           amplitude="1"
           exponent="2.4"
           offset="0"
           id="feFuncB7498" />
      </feComponentTransfer>
    </filter>
  </defs>
  <g
     id="Document"
     font-size="16"
     transform="matrix(1,0,0,-1,13.55501,5.604)"
     style="font-size:16px;fill:none;stroke:#000000;font-family:Times New Roman">
    <g
       id="Spread"
       transform="translate(0,-841.891)">
      <g
         id="Layer 1">
        <path
           d="m 37.25,696.487 c -3.293,-3.241 -5.989,-7.132 -8.055,-11.695 l -12.114,37.286 34.297,-16.834 c -3.849,-1.421 -7.305,-3.261 -10.363,-5.537 29.499,-25.55 52.411,-17.353 70.015,-6.561 -18.957,20.4 -30.164,34.25 -21.606,44.544 l -33.463,42.903 c -2.055,-0.871 -4.316,-1.348 -6.686,-1.348 -9.481,0 -17.185,7.704 -17.185,17.185 0,9.482 7.704,17.185 17.185,17.185 9.481,0 17.185,-7.703 17.185,-17.185 0,-4.961 -2.108,-9.434 -5.475,-12.57 l 32.949,-42.237 c 11.469,7.51 21.916,-1.898 40.994,-28.827 l 0.026,-0.021 c 8.978,14.374 18.355,48.378 8.04,71.851 -3.105,-2.271 -5.9,-5.066 -8.37,-8.407 l -4.012,39.001 29.997,-23.667 c -5.014,-0.713 -9.581,-2.182 -13.688,-4.437 19.399,-41.963 -5.044,-53.123 5.764,-112.052 l -0.016,-0.094 C 112.693,694.085 83.923,653.511 37.25,696.487 z m 23.887,99.943 c 0,6.545 -5.317,11.862 -11.862,11.862 -6.545,0 -11.862,-5.317 -11.862,-11.862 0,-6.545 5.317,-11.862 11.862,-11.862 6.545,0 11.862,5.317 11.862,11.862 z"
           stroke-miterlimit="79.8403193612775"
           id="path7503"
           inkscape:connector-curvature="0"
           style="fill:#000000;stroke:none;stroke-width:0.184;marker-start:none;marker-end:none" />
      </g>
    </g>
  </g>
  <path
     style="fill:#ffffff;fill-opacity:1;fill-rule:nonzero;stroke:#c8beb7;stroke-width:1.47644293;stroke-miterlimit:4;stroke-opacity:1;stroke-dasharray:none"
     d="M 73.017508,76.859601 C 67.037529,74.265834 63.958866,69.108846 64.499369,62.59109 65.535807,50.093009 80.966264,45.200165 89.324238,54.719372 c 9.691154,11.037615 -2.80076,27.998333 -16.30673,22.140229 z"
     id="path7509"
     inkscape:connector-curvature="0"
     transform="matrix(0.80000008,0,0,0.80000008,0,-10e-6)" />
</svg>
