<?xml version="1.0" encoding="UTF-8" standalone="no"?>
<!--Generator: Xara Designer (www.xara.com), SVG filter version: 3.0.2.3-->

<svg
   xmlns:dc="http://purl.org/dc/elements/1.1/"
   xmlns:cc="http://creativecommons.org/ns#"
   xmlns:rdf="http://www.w3.org/1999/02/22-rdf-syntax-ns#"
   xmlns:svg="http://www.w3.org/2000/svg"
   xmlns="http://www.w3.org/2000/svg"
   xmlns:sodipodi="http://sodipodi.sourceforge.net/DTD/sodipodi-0.dtd"
   xmlns:inkscape="http://www.inkscape.org/namespaces/inkscape"
   version="1.1"
   overflow="visible"
   width="256"
   height="256"
   viewBox="0 0 204.80002 204.8"
   id="svg4071"
   inkscape:version="0.48.4 r9939"
   sodipodi:docname="blackmarket.svg"
   style="fill-rule:evenodd;stroke-width:0.50099999;stroke-linejoin:bevel;overflow:visible"
   inkscape:export-filename="C:\Users\Bas des Bouvrie\workspace\DominionToolkit\res\drawable-ldpi\blackmarket_icon.png"
   inkscape:export-xdpi="11.25"
   inkscape:export-ydpi="11.25">
  <metadata
     id="metadata4159">
    <rdf:RDF>
      <cc:Work
         rdf:about="">
        <dc:format>image/svg+xml</dc:format>
        <dc:type
           rdf:resource="http://purl.org/dc/dcmitype/StillImage" />
        <dc:title></dc:title>
      </cc:Work>
    </rdf:RDF>
  </metadata>
  <sodipodi:namedview
     pagecolor="#ffffff"
     bordercolor="#666666"
     borderopacity="1"
     objecttolerance="10"
     gridtolerance="10"
     guidetolerance="10"
     inkscape:pageopacity="0"
     inkscape:pageshadow="2"
     inkscape:window-width="1920"
     inkscape:window-height="1018"
     id="namedview4157"
     showgrid="false"
     inkscape:zoom="1.7940564"
     inkscape:cx="247.02651"
     inkscape:cy="153.79704"
     inkscape:window-x="-8"
     inkscape:window-y="-8"
     inkscape:window-maximized="1"
     inkscape:current-layer="svg4071" />
  <defs
     id="defs4073">
    <marker
       id="DefaultArrow2"
       markerUnits="strokeWidth"
       viewBox="0 0 1 1"
       markerWidth="1"
       markerHeight="1"
       overflow="visible"
       orient="auto"
       style="overflow:visible">
      <!-- REF_ARROW_STRAIGHT (-2) -->
      <g
         transform="scale(0.00925926,0.00925926)"
         id="g4076">
        <!-- 1/108 -->
        <path
           d="M -9,54 -9,-54 117,0 z"
           id="path4078"
           inkscape:connector-curvature="0" />
      </g>
    </marker>
    <marker
       id="DefaultArrow3"
       markerUnits="strokeWidth"
       viewBox="0 0 1 1"
       markerWidth="1"
       markerHeight="1"
       overflow="visible"
       orient="auto"
       style="overflow:visible">
      <!-- REF_ARROW_ANGLED -->
      <g
         transform="scale(0.00925926,0.00925926)"
         id="g4081">
        <path
           d="M -27,54 -9,0 -27,-54 135,0 z"
           id="path4083"
           inkscape:connector-curvature="0" />
      </g>
    </marker>
    <marker
       id="DefaultArrow4"
       markerUnits="strokeWidth"
       viewBox="0 0 1 1"
       markerWidth="1"
       markerHeight="1"
       overflow="visible"
       orient="auto"
       style="overflow:visible">
      <!-- REF_ARROW_ROUNDED -->
      <g
         transform="scale(0.00925926,0.00925926)"
         id="g4086">
        <path
           d="m -9,0 0,-45 c 0,-6.708 11.808,-11.58 18,-9 l 108,45 c 3.916,1.631 9,4.758 9,9 0,4.242 -5.084,7.369 -9,9 L 9,54 C 2.808,56.58 -9,51.708 -9,45 z"
           id="path4088"
           inkscape:connector-curvature="0" />
      </g>
    </marker>
    <marker
       id="DefaultArrow5"
       markerUnits="strokeWidth"
       viewBox="0 0 1 1"
       markerWidth="1"
       markerHeight="1"
       overflow="visible"
       orient="auto"
       style="overflow:visible">
      <!-- REF_ARROW_SPOT -->
      <g
         transform="scale(0.00925926,0.00925926)"
         id="g4091">
        <path
           d="M -54,0 C -54,29.807 -29.807,54 0,54 29.807,54 54,29.807 54,0 54,-29.807 29.807,-54 0,-54 -29.807,-54 -54,-29.807 -54,0 z"
           id="path4093"
           inkscape:connector-curvature="0" />
      </g>
    </marker>
    <marker
       id="DefaultArrow6"
       markerUnits="strokeWidth"
       viewBox="0 0 1 1"
       markerWidth="1"
       markerHeight="1"
       overflow="visible"
       orient="auto"
       style="overflow:visible">
      <!-- REF_ARROW_DIAMOND -->
      <g
         transform="scale(0.00925926,0.00925926)"
         id="g4096">
        <path
           d="M -63,0 0,63 63,0 0,-63 z"
           id="path4098"
           inkscape:connector-curvature="0" />
      </g>
    </marker>
    <marker
       id="DefaultArrow7"
       markerUnits="strokeWidth"
       viewBox="0 0 1 1"
       markerWidth="1"
       markerHeight="1"
       overflow="visible"
       orient="auto"
       style="overflow:visible">
      <!-- REF_ARROW_FEATHER -->
      <g
         transform="scale(0.00925926,0.00925926)"
         id="g4101">
        <path
           d="m 18,-54 90,0 L 63,0 108,54 18,54 -36,0 z"
           id="path4103"
           inkscape:connector-curvature="0" />
      </g>
    </marker>
    <marker
       id="DefaultArrow8"
       markerUnits="strokeWidth"
       viewBox="0 0 1 1"
       markerWidth="1"
       markerHeight="1"
       overflow="visible"
       orient="auto"
       style="overflow:visible">
      <!-- REF_ARROW_FEATHER2 -->
      <g
         transform="scale(0.00925926,0.00925926)"
         id="g4106">
        <path
           d="m -36,0 54,-54 36,0 -36,36 9,0 36,-36 36,0 -36,36 9,0 36,-36 36,0 -54,54 54,54 -36,0 -36,-36 -9,0 36,36 -36,0 -36,-36 -9,0 36,36 -36,0 z"
           id="path4108"
           inkscape:connector-curvature="0" />
      </g>
    </marker>
    <marker
       id="DefaultArrow9"
       markerUnits="strokeWidth"
       viewBox="0 0 1 1"
       markerWidth="1"
       markerHeight="1"
       overflow="visible"
       orient="auto"
       style="overflow:visible">
      <!-- REF_ARROW_HOLLOWDIAMOND -->
      <g
         transform="scale(0.00925926,0.00925926)"
         id="g4111">
        <path
           d="M 0,45 -45,0 0,-45 45,0 z M 0,63 -63,0 0,-63 63,0 z"
           id="path4113"
           inkscape:connector-curvature="0" />
      </g>
    </marker>
    <filter
       id="StainedFilter"
       color-interpolation-filters="sRGB">
      <feBlend
         mode="multiply"
         in2="BackgroundImage"
         in="SourceGraphic"
         result="blend"
         id="feBlend4116" />
      <feComposite
         in="blend"
         in2="SourceAlpha"
         operator="in"
         result="comp"
         id="feComposite4118" />
    </filter>
    <filter
       id="BleachFilter"
       color-interpolation-filters="sRGB">
      <feBlend
         mode="screen"
         in2="BackgroundImage"
         in="SourceGraphic"
         result="blend"
         id="feBlend4121" />
      <feComposite
         in="blend"
         in2="SourceAlpha"
         operator="in"
         result="comp"
         id="feComposite4123" />
    </filter>
    <filter
       id="InvertTransparencyBitmapFilter"
       color-interpolation-filters="sRGB">
      <feComponentTransfer
         id="feComponentTransfer4126">
        <feFuncR
           type="gamma"
           amplitude="1.055"
           exponent=".416666666"
           offset="-0.055"
           id="feFuncR4128" />
        <feFuncG
           type="gamma"
           amplitude="1.055"
           exponent=".416666666"
           offset="-0.055"
           id="feFuncG4130" />
        <feFuncB
           type="gamma"
           amplitude="1.055"
           exponent=".416666666"
           offset="-0.055"
           id="feFuncB4132" />
      </feComponentTransfer>
      <feComponentTransfer
         id="feComponentTransfer4134">
        <feFuncR
           type="linear"
           slope="-1"
           intercept="1"
           id="feFuncR4136" />
        <feFuncG
           type="linear"
           slope="-1"
           intercept="1"
           id="feFuncG4138" />
        <feFuncB
           type="linear"
           slope="-1"
           intercept="1"
           id="feFuncB4140" />
        <feFuncA
           type="linear"
           slope="1"
           intercept="0"
           id="feFuncA4142" />
      </feComponentTransfer>
      <feComponentTransfer
         id="feComponentTransfer4144">
        <feFuncR
           type="gamma"
           amplitude="1"
           exponent="2.4"
           offset="0"
           id="feFuncR4146" />
        <feFuncG
           type="gamma"
           amplitude="1"
           exponent="2.4"
           offset="0"
           id="feFuncG4148" />
        <feFuncB
           type="gamma"
           amplitude="1"
           exponent="2.4"
           offset="0"
           id="feFuncB4150" />
      </feComponentTransfer>
    </filter>
  </defs>
  <g
     id="Document"
     font-size="16"
     transform="matrix(1,0,0,-1,-1.0375277,9.8485)"
     style="font-size:16px;fill:none;stroke:#000000;font-family:Times New Roman">
    <g
       id="Spread"
       transform="translate(0,-841.891)">
      <g
         id="Layer 1">
        <path
           d="m 60.218,681.753 -27.127,75.495 c -0.549,1.527 -0.071,3.235 1.191,4.255 l 70.691,57.13 c 0.42,0.339 0.89,0.575 1.379,0.709 l 1.208,0.087 0.284,0.02 0.393,-0.131 0.726,-0.119 c 0.453,-0.166 0.881,-0.42 1.259,-0.764 l 62.546,-57.125 c 1.177,-1.076 1.561,-2.771 0.961,-4.249 l -30.615,-75.452 c -0.583,-1.438 -1.981,-2.379 -3.532,-2.379 l -75.776,0 c -1.609,0 -3.045,1.01 -3.588,2.523 z m 74.064,5.525 -22.85,31.026 -11.054,-1.155 -33.134,-29.871 67.038,0 z m 5.129,6.619 24.562,60.547 -9.769,0 -35.512,-32.432 20.719,-28.115 z m -75.453,1.246 29.298,26.426 -24.228,32.875 -26.412,0 21.342,-59.301 z m 36.564,30.114 11.042,1.15 30.717,28.037 -63.274,0 21.515,-29.187 z m 3.399,37.234 17.91,34.491 -14.472,13.193 -59.089,-47.684 55.651,0 z m 47.139,0 0.001,10e-4 8.509,0 -16.907,15.441 0,-0.009 -14.702,13.444 -14.98,-28.877 38.079,0 z"
           stroke-miterlimit="79.8403193612775"
           id="path4155"
           inkscape:connector-curvature="0"
           style="fill:#000000;fill-rule:evenodd;stroke:none;stroke-width:0.5;marker-start:none;marker-end:none" />
      </g>
    </g>
  </g>
  <path
     style="fill:#ffffff;fill-opacity:1;fill-rule:nonzero;stroke:#c8beb7;stroke-width:1.04400289;stroke-miterlimit:4;stroke-opacity:1;stroke-dasharray:none"
     d="m 60.712547,110.71818 c 2.305751,-2.25997 71.946533,-57.989994 72.312443,-57.868023 0.25996,0.08666 4.32327,3.648999 9.02956,7.916318 l 8.55688,7.758763 -4.66434,8.951708 c -2.56538,4.92344 -7.53464,14.46993 -11.0428,21.214422 l -6.37847,12.262712 -34.173563,0.14368 c -21.301357,0.0896 -33.972477,-0.0534 -33.63971,-0.37958 l 0,0 z"
     id="path4161"
     inkscape:connector-curvature="0"
     transform="matrix(0.80000008,0,0,0.80000008,0,-10e-6)" />
  <path
     style="fill:#ffffff;fill-opacity:1;fill-rule:nonzero;stroke:#c8beb7;stroke-width:1.04400289;stroke-miterlimit:4;stroke-opacity:1;stroke-dasharray:none"
     d="m 140.76824,110.74351 c 0.10219,-0.2691 4.17665,-8.17605 9.05435,-17.570995 l 8.86856,-17.081728 1.16457,1.036326 c 3.2344,2.878204 34.27879,31.143687 35.71241,32.515657 l 1.66147,1.59001 -28.32358,0 c -16.02265,0 -28.24289,-0.21249 -28.13778,-0.48927 z"
     id="path4163"
     inkscape:connector-curvature="0"
     transform="matrix(0.80000008,0,0,0.80000008,0,-10e-6)" />
  <path
     style="fill:#ffffff;fill-opacity:1;fill-rule:nonzero;stroke:#c8beb7;stroke-width:1.04400289;stroke-miterlimit:4;stroke-opacity:1;stroke-dasharray:none"
     d="M 111.24853,139.8288 98.264896,122.102 117.51923,121.95543 c 10.58989,-0.0806 27.96361,-0.0806 38.60828,0 l 19.35394,0.14657 -18.59528,17.00058 c -13.17084,12.04134 -19.10113,17.11136 -20.32938,17.38035 -0.95376,0.20887 -4.11698,0.53566 -7.02937,0.72621 l -5.29526,0.34645 -12.98363,-17.72679 z"
     id="path4165"
     inkscape:connector-curvature="0"
     transform="matrix(0.80000008,0,0,0.80000008,0,-10e-6)" />
  <path
     style="fill:#ffffff;fill-opacity:1;fill-rule:nonzero;stroke:#c8beb7;stroke-width:1.04400289;stroke-miterlimit:4;stroke-opacity:1;stroke-dasharray:none"
     d="m 160.34102,179.61057 c -6.81153,-9.25026 -12.34807,-17.06948 -12.30343,-17.37605 0.0446,-0.30657 9.88178,-9.52008 21.86032,-20.47447 l 21.77917,-19.91708 5.77295,-0.01 c 4.39476,-0.007 5.70806,0.1565 5.50115,0.68691 -2.24076,5.74433 -29.14263,71.82244 -29.59681,72.69761 -0.57692,1.11167 -1.64974,-0.17497 -13.01335,-15.60709 l 0,0 z"
     id="path4167"
     inkscape:connector-curvature="0"
     transform="matrix(0.80000008,0,0,0.80000008,0,-10e-6)" />
  <path
     style="fill:#ffffff;fill-opacity:1;fill-rule:nonzero;stroke:#c8beb7;stroke-width:1.04400289;stroke-miterlimit:4;stroke-opacity:1;stroke-dasharray:none"
     d="m 85.493131,203.60044 c 1.072987,-0.99116 9.601147,-8.67502 18.951469,-17.07524 9.35032,-8.40022 17.66906,-15.88634 18.48609,-16.63582 1.27061,-1.16555 2.4398,-1.46795 8.08224,-2.09038 3.6282,-0.40023 6.7584,-0.56183 6.95599,-0.35911 0.47991,0.49239 26.89728,36.40555 27.43462,37.29608 0.33486,0.55495 -7.95198,0.69368 -40.72044,0.68166 l -41.140856,-0.0151 1.950887,-1.80211 z"
     id="path4169"
     inkscape:connector-curvature="0"
     transform="matrix(0.80000008,0,0,0.80000008,0,-10e-6)" />
  <path
     style="fill:#ffffff;fill-opacity:1;fill-rule:nonzero;stroke:#c8beb7;stroke-width:1.04400289;stroke-miterlimit:4;stroke-opacity:1;stroke-dasharray:none"
     d="m 78.627019,194.44876 c -0.347444,-0.56217 -26.020256,-71.94652 -26.020256,-72.35042 0,-0.15127 7.226089,-0.27504 16.057975,-0.27504 l 16.057975,0 14.646827,19.86711 c 8.05575,10.92691 14.76216,20.16766 14.90312,20.535 0.19973,0.52047 -14.52706,14.16116 -34.155338,31.6364 -0.657436,0.58532 -1.328072,0.84945 -1.490303,0.58695 z"
     id="path4171"
     inkscape:connector-curvature="0"
     transform="matrix(0.80000008,0,0,0.80000008,0,-10e-6)" />
</svg>
