<?xml version="1.0" encoding="UTF-8" standalone="no"?>
<!--Generator: Xara Designer (www.xara.com), SVG filter version: 3.0.0.4-->

<svg
   xmlns:dc="http://purl.org/dc/elements/1.1/"
   xmlns:cc="http://creativecommons.org/ns#"
   xmlns:rdf="http://www.w3.org/1999/02/22-rdf-syntax-ns#"
   xmlns:svg="http://www.w3.org/2000/svg"
   xmlns="http://www.w3.org/2000/svg"
   xmlns:sodipodi="http://sodipodi.sourceforge.net/DTD/sodipodi-0.dtd"
   xmlns:inkscape="http://www.inkscape.org/namespaces/inkscape"
   version="1.1"
   overflow="visible"
   width="256"
   height="256"
   viewBox="0 0 204.80002 204.8"
   id="svg4263"
   inkscape:version="0.48.4 r9939"
   sodipodi:docname="cornucopia.svg"
   style="fill-rule:evenodd;stroke-width:0.50099999;stroke-linejoin:bevel;overflow:visible"
   inkscape:export-filename="C:\Users\Bas des Bouvrie\workspace\DominionToolkit\res\drawable-ldpi\cornucopia_icon.png"
   inkscape:export-xdpi="11.25"
   inkscape:export-ydpi="11.25">
  <metadata
     id="metadata4351">
    <rdf:RDF>
      <cc:Work
         rdf:about="">
        <dc:format>image/svg+xml</dc:format>
        <dc:type
           rdf:resource="http://purl.org/dc/dcmitype/StillImage" />
        <dc:title></dc:title>
      </cc:Work>
    </rdf:RDF>
  </metadata>
  <sodipodi:namedview
     pagecolor="#ffffff"
     bordercolor="#666666"
     borderopacity="1"
     objecttolerance="10"
     gridtolerance="10"
     guidetolerance="10"
     inkscape:pageopacity="0"
     inkscape:pageshadow="2"
     inkscape:window-width="1920"
     inkscape:window-height="1018"
     id="namedview4349"
     showgrid="false"
     inkscape:zoom="0.22425706"
     inkscape:cx="-160.82254"
     inkscape:cy="526.18188"
     inkscape:window-x="-8"
     inkscape:window-y="-8"
     inkscape:window-maximized="1"
     inkscape:current-layer="svg4263" />
  <defs
     id="defs4265">
    <marker
       id="DefaultArrow2"
       markerUnits="strokeWidth"
       viewBox="0 0 1 1"
       markerWidth="1"
       markerHeight="1"
       overflow="visible"
       orient="auto"
       style="overflow:visible">
      <!-- REF_ARROW_STRAIGHT (-2) -->
      <g
         transform="scale(0.00925926,0.00925926)"
         id="g4268">
        <!-- 1/108 -->
        <path
           d="M -9,54 -9,-54 117,0 z"
           id="path4270"
           inkscape:connector-curvature="0" />
      </g>
    </marker>
    <marker
       id="DefaultArrow3"
       markerUnits="strokeWidth"
       viewBox="0 0 1 1"
       markerWidth="1"
       markerHeight="1"
       overflow="visible"
       orient="auto"
       style="overflow:visible">
      <!-- REF_ARROW_ANGLED -->
      <g
         transform="scale(0.00925926,0.00925926)"
         id="g4273">
        <path
           d="M -27,54 -9,0 -27,-54 135,0 z"
           id="path4275"
           inkscape:connector-curvature="0" />
      </g>
    </marker>
    <marker
       id="DefaultArrow4"
       markerUnits="strokeWidth"
       viewBox="0 0 1 1"
       markerWidth="1"
       markerHeight="1"
       overflow="visible"
       orient="auto"
       style="overflow:visible">
      <!-- REF_ARROW_ROUNDED -->
      <g
         transform="scale(0.00925926,0.00925926)"
         id="g4278">
        <path
           d="m -9,0 0,-45 c 0,-6.708 11.808,-11.58 18,-9 l 108,45 c 3.916,1.631 9,4.758 9,9 0,4.242 -5.084,7.369 -9,9 L 9,54 C 2.808,56.58 -9,51.708 -9,45 z"
           id="path4280"
           inkscape:connector-curvature="0" />
      </g>
    </marker>
    <marker
       id="DefaultArrow5"
       markerUnits="strokeWidth"
       viewBox="0 0 1 1"
       markerWidth="1"
       markerHeight="1"
       overflow="visible"
       orient="auto"
       style="overflow:visible">
      <!-- REF_ARROW_SPOT -->
      <g
         transform="scale(0.00925926,0.00925926)"
         id="g4283">
        <path
           d="M -54,0 C -54,29.807 -29.807,54 0,54 29.807,54 54,29.807 54,0 54,-29.807 29.807,-54 0,-54 -29.807,-54 -54,-29.807 -54,0 z"
           id="path4285"
           inkscape:connector-curvature="0" />
      </g>
    </marker>
    <marker
       id="DefaultArrow6"
       markerUnits="strokeWidth"
       viewBox="0 0 1 1"
       markerWidth="1"
       markerHeight="1"
       overflow="visible"
       orient="auto"
       style="overflow:visible">
      <!-- REF_ARROW_DIAMOND -->
      <g
         transform="scale(0.00925926,0.00925926)"
         id="g4288">
        <path
           d="M -63,0 0,63 63,0 0,-63 z"
           id="path4290"
           inkscape:connector-curvature="0" />
      </g>
    </marker>
    <marker
       id="DefaultArrow7"
       markerUnits="strokeWidth"
       viewBox="0 0 1 1"
       markerWidth="1"
       markerHeight="1"
       overflow="visible"
       orient="auto"
       style="overflow:visible">
      <!-- REF_ARROW_FEATHER -->
      <g
         transform="scale(0.00925926,0.00925926)"
         id="g4293">
        <path
           d="m 18,-54 90,0 L 63,0 108,54 18,54 -36,0 z"
           id="path4295"
           inkscape:connector-curvature="0" />
      </g>
    </marker>
    <marker
       id="DefaultArrow8"
       markerUnits="strokeWidth"
       viewBox="0 0 1 1"
       markerWidth="1"
       markerHeight="1"
       overflow="visible"
       orient="auto"
       style="overflow:visible">
      <!-- REF_ARROW_FEATHER2 -->
      <g
         transform="scale(0.00925926,0.00925926)"
         id="g4298">
        <path
           d="m -36,0 54,-54 36,0 -36,36 9,0 36,-36 36,0 -36,36 9,0 36,-36 36,0 -54,54 54,54 -36,0 -36,-36 -9,0 36,36 -36,0 -36,-36 -9,0 36,36 -36,0 z"
           id="path4300"
           inkscape:connector-curvature="0" />
      </g>
    </marker>
    <marker
       id="DefaultArrow9"
       markerUnits="strokeWidth"
       viewBox="0 0 1 1"
       markerWidth="1"
       markerHeight="1"
       overflow="visible"
       orient="auto"
       style="overflow:visible">
      <!-- REF_ARROW_HOLLOWDIAMOND -->
      <g
         transform="scale(0.00925926,0.00925926)"
         id="g4303">
        <path
           d="M 0,45 -45,0 0,-45 45,0 z M 0,63 -63,0 0,-63 63,0 z"
           id="path4305"
           inkscape:connector-curvature="0" />
      </g>
    </marker>
    <filter
       id="StainedFilter"
       color-interpolation-filters="sRGB">
      <feBlend
         mode="multiply"
         in2="BackgroundImage"
         in="SourceGraphic"
         result="blend"
         id="feBlend4308" />
      <feComposite
         in="blend"
         in2="SourceAlpha"
         operator="in"
         result="comp"
         id="feComposite4310" />
    </filter>
    <filter
       id="BleachFilter"
       color-interpolation-filters="sRGB">
      <feBlend
         mode="screen"
         in2="BackgroundImage"
         in="SourceGraphic"
         result="blend"
         id="feBlend4313" />
      <feComposite
         in="blend"
         in2="SourceAlpha"
         operator="in"
         result="comp"
         id="feComposite4315" />
    </filter>
    <filter
       id="InvertTransparencyBitmapFilter"
       color-interpolation-filters="sRGB">
      <feComponentTransfer
         id="feComponentTransfer4318">
        <feFuncR
           type="gamma"
           amplitude="1.055"
           exponent=".416666666"
           offset="-0.055"
           id="feFuncR4320" />
        <feFuncG
           type="gamma"
           amplitude="1.055"
           exponent=".416666666"
           offset="-0.055"
           id="feFuncG4322" />
        <feFuncB
           type="gamma"
           amplitude="1.055"
           exponent=".416666666"
           offset="-0.055"
           id="feFuncB4324" />
      </feComponentTransfer>
      <feComponentTransfer
         id="feComponentTransfer4326">
        <feFuncR
           type="linear"
           slope="-1"
           intercept="1"
           id="feFuncR4328" />
        <feFuncG
           type="linear"
           slope="-1"
           intercept="1"
           id="feFuncG4330" />
        <feFuncB
           type="linear"
           slope="-1"
           intercept="1"
           id="feFuncB4332" />
        <feFuncA
           type="linear"
           slope="1"
           intercept="0"
           id="feFuncA4334" />
      </feComponentTransfer>
      <feComponentTransfer
         id="feComponentTransfer4336">
        <feFuncR
           type="gamma"
           amplitude="1"
           exponent="2.4"
           offset="0"
           id="feFuncR4338" />
        <feFuncG
           type="gamma"
           amplitude="1"
           exponent="2.4"
           offset="0"
           id="feFuncG4340" />
        <feFuncB
           type="gamma"
           amplitude="1"
           exponent="2.4"
           offset="0"
           id="feFuncB4342" />
      </feComponentTransfer>
    </filter>
  </defs>
  <g
     id="Document"
     font-size="16"
     transform="matrix(1,0,0,-1,19.140318,5.604)"
     style="font-size:16px;fill:none;stroke:#000000;font-family:Times New Roman">
    <g
       id="Spread"
       transform="translate(0,-841.891)">
      <g
         id="Layer 1">
        <path
           d="m 100.125,690.232 c -7.316,-5.667 -8.966,-7.351 -14.034,-7.432 -2.054,-0.031 -5.067,-0.128 -8.636,0.39 -3.678,0 -7,1.58 -9.364,4.122 -0.726,-0.205 -1.541,-0.317 -2.391,-0.317 l -0.085,0 c 0.078,-0.518 0.12,-1.047 0.12,-1.584 0,-5.724 -4.593,-9.201 -10.143,-9.201 -5.551,0 -9.989,3.477 -9.989,9.201 0,5.725 4.515,10.371 10.066,10.371 2.611,0 4.995,-1.035 6.787,-2.723 0.687,0.29 0.857,0.251 1.723,0.332 -0.201,0.935 -0.306,1.905 -0.306,2.905 0,7.366 5.81,13.346 12.952,13.346 7.142,0 13.581,-5.74 13.581,-13.106 0,-1.677 -0.066,-3.237 -0.614,-4.713 -0.224,-1.039 1.178,-2.263 2.418,-0.266 9.641,22.646 -22.342,46.981 -39.453,38.653 2.676,7.602 16.698,10.499 33.334,19.105 31.868,-31.519 39.168,-35.112 3.825,1.854 6.076,3.353 10.892,7.88 19.004,12.863 24.219,-19.7 28.043,-17.61 3.94,3.476 4.365,3.956 8.351,9.325 12.565,14.586 13.971,-13.543 21.851,-15.86 1.985,2.541 2.349,3.087 5.69,6.409 7.931,9.989 9.965,-5.794 12.418,-4.6 2.201,4.056 2.859,4.948 4.96,10.626 7.536,16.54 13.581,-36.39 -5.431,-88.899 -44.953,-124.988 z M 35.398,679.617 c 0,2.565 2.136,4.106 4.623,4.106 2.488,0.004 4.4,-1.541 4.4,-4.106 0,-2.565 -2.024,-4.647 -4.512,-4.647 -2.487,0 -4.511,2.082 -4.511,4.647 z m -18.317,-0.463 c 0,2.174 1.715,3.939 3.82,3.939 2.113,0 3.828,-1.765 3.828,-3.939 0,-2.175 -1.715,-3.94 -3.824,-3.94 -2.109,0 -3.824,1.765 -3.824,3.94 z m 43.98,17.783 c -12.167,3.245 -14.021,-2.781 -17.845,-7.068 -3.932,-4.408 -10.707,-8.568 -16.108,-6.49 -4.368,1.681 -11.255,8.842 -6.141,12.631 4.172,1.97 10.081,-2.665 20.163,4.867 3.94,3.245 2.086,6.142 -0.811,4.983 -2.055,-0.819 -3.685,-2.132 -5.331,-4.172 -1.738,-2.201 -4.635,-1.043 -4.519,0.812 -0.464,3.939 0.471,12.121 4.288,16.57 2.781,3.245 8.922,2.897 11.008,-5.794 1.723,-7.192 8.691,-5.678 6.142,0.116 -2.399,8.019 -1.329,14.211 5.214,15.76 17.382,3.013 29.318,-11.82 33.196,-23.81 -12.105,13.033 -29.14,4.806 -29.256,-8.405 z"
           stroke-miterlimit="79.8403193612775"
           id="path4347"
           inkscape:connector-curvature="0"
           style="fill:#000000;stroke:none;stroke-width:0.097;marker-start:none;marker-end:none" />
      </g>
    </g>
  </g>
</svg>
